<mxfile host="app.diagrams.net" agent="Mozilla/5.0 (Windows NT 10.0; Win64; x64) AppleWebKit/537.36 (KHTML, like Gecko) Chrome/129.0.0.0 Safari/537.36" version="24.8.0">
  <diagram id="R2lEEEUBdFMjLlhIrx00" name="Page-1">
    <mxGraphModel dx="1107" dy="421" grid="1" gridSize="10" guides="1" tooltips="1" connect="1" arrows="1" fold="1" page="1" pageScale="1" pageWidth="850" pageHeight="1100" math="0" shadow="0" extFonts="Permanent Marker^https://fonts.googleapis.com/css?family=Permanent+Marker">
      <root>
        <mxCell id="0" />
        <mxCell id="1" parent="0" />
        <mxCell id="hGvPeqAMgqFfSPeqPx9l-29" value="" style="rounded=0;whiteSpace=wrap;html=1;" vertex="1" parent="1">
          <mxGeometry x="800" y="1250" width="200" height="280" as="geometry" />
        </mxCell>
        <mxCell id="dUaIV0kOqCtZzh9622oY-28" style="edgeStyle=orthogonalEdgeStyle;rounded=0;orthogonalLoop=1;jettySize=auto;html=1;exitX=0.25;exitY=1;exitDx=0;exitDy=0;entryX=0.25;entryY=0;entryDx=0;entryDy=0;" parent="1" source="dUaIV0kOqCtZzh9622oY-21" target="dUaIV0kOqCtZzh9622oY-22" edge="1">
          <mxGeometry relative="1" as="geometry" />
        </mxCell>
        <mxCell id="dUaIV0kOqCtZzh9622oY-29" value="current" style="edgeLabel;html=1;align=center;verticalAlign=middle;resizable=0;points=[];" parent="dUaIV0kOqCtZzh9622oY-28" vertex="1" connectable="0">
          <mxGeometry x="0.0086" y="2" relative="1" as="geometry">
            <mxPoint as="offset" />
          </mxGeometry>
        </mxCell>
        <mxCell id="dUaIV0kOqCtZzh9622oY-21" value="FiberRoot" style="rounded=0;whiteSpace=wrap;html=1;" parent="1" vertex="1">
          <mxGeometry x="530" y="120" width="120" height="60" as="geometry" />
        </mxCell>
        <mxCell id="dUaIV0kOqCtZzh9622oY-26" style="edgeStyle=orthogonalEdgeStyle;rounded=0;orthogonalLoop=1;jettySize=auto;html=1;exitX=0.75;exitY=0;exitDx=0;exitDy=0;" parent="1" source="dUaIV0kOqCtZzh9622oY-22" edge="1">
          <mxGeometry relative="1" as="geometry">
            <mxPoint x="619.5714285714284" y="180.00000000000006" as="targetPoint" />
          </mxGeometry>
        </mxCell>
        <mxCell id="dUaIV0kOqCtZzh9622oY-27" value="stateNode" style="edgeLabel;html=1;align=center;verticalAlign=middle;resizable=0;points=[];" parent="dUaIV0kOqCtZzh9622oY-26" vertex="1" connectable="0">
          <mxGeometry x="0.0071" relative="1" as="geometry">
            <mxPoint y="1" as="offset" />
          </mxGeometry>
        </mxCell>
        <mxCell id="dUaIV0kOqCtZzh9622oY-22" value="HostRoot" style="rounded=0;whiteSpace=wrap;html=1;" parent="1" vertex="1">
          <mxGeometry x="530" y="240" width="120" height="60" as="geometry" />
        </mxCell>
        <mxCell id="dUaIV0kOqCtZzh9622oY-30" style="edgeStyle=orthogonalEdgeStyle;rounded=0;orthogonalLoop=1;jettySize=auto;html=1;exitX=0.25;exitY=1;exitDx=0;exitDy=0;entryX=0.25;entryY=0;entryDx=0;entryDy=0;" parent="1" source="dUaIV0kOqCtZzh9622oY-32" target="dUaIV0kOqCtZzh9622oY-35" edge="1">
          <mxGeometry relative="1" as="geometry" />
        </mxCell>
        <mxCell id="dUaIV0kOqCtZzh9622oY-31" value="current" style="edgeLabel;html=1;align=center;verticalAlign=middle;resizable=0;points=[];" parent="dUaIV0kOqCtZzh9622oY-30" vertex="1" connectable="0">
          <mxGeometry x="0.0086" y="2" relative="1" as="geometry">
            <mxPoint as="offset" />
          </mxGeometry>
        </mxCell>
        <mxCell id="dUaIV0kOqCtZzh9622oY-32" value="FiberRoot" style="rounded=0;whiteSpace=wrap;html=1;" parent="1" vertex="1">
          <mxGeometry x="1550" y="80" width="120" height="60" as="geometry" />
        </mxCell>
        <mxCell id="dUaIV0kOqCtZzh9622oY-33" style="edgeStyle=orthogonalEdgeStyle;rounded=0;orthogonalLoop=1;jettySize=auto;html=1;exitX=0.75;exitY=0;exitDx=0;exitDy=0;" parent="1" source="dUaIV0kOqCtZzh9622oY-35" edge="1">
          <mxGeometry relative="1" as="geometry">
            <mxPoint x="1639.5714285714284" y="140.00000000000006" as="targetPoint" />
          </mxGeometry>
        </mxCell>
        <mxCell id="dUaIV0kOqCtZzh9622oY-34" value="stateNode" style="edgeLabel;html=1;align=center;verticalAlign=middle;resizable=0;points=[];" parent="dUaIV0kOqCtZzh9622oY-33" vertex="1" connectable="0">
          <mxGeometry x="0.0071" relative="1" as="geometry">
            <mxPoint y="1" as="offset" />
          </mxGeometry>
        </mxCell>
        <mxCell id="dUaIV0kOqCtZzh9622oY-35" value="HostRoot" style="rounded=0;whiteSpace=wrap;html=1;" parent="1" vertex="1">
          <mxGeometry x="1550" y="200" width="120" height="60" as="geometry" />
        </mxCell>
        <mxCell id="dUaIV0kOqCtZzh9622oY-37" style="edgeStyle=orthogonalEdgeStyle;rounded=0;orthogonalLoop=1;jettySize=auto;html=1;exitX=0.5;exitY=1;exitDx=0;exitDy=0;" parent="1" source="dUaIV0kOqCtZzh9622oY-36" edge="1">
          <mxGeometry relative="1" as="geometry">
            <mxPoint x="1010" y="300.0045288085937" as="targetPoint" />
          </mxGeometry>
        </mxCell>
        <mxCell id="dUaIV0kOqCtZzh9622oY-36" value="workInProgressRoot" style="text;html=1;align=center;verticalAlign=middle;whiteSpace=wrap;rounded=0;" parent="1" vertex="1">
          <mxGeometry x="950" y="214.55" width="120" height="30" as="geometry" />
        </mxCell>
        <mxCell id="dUaIV0kOqCtZzh9622oY-38" value="HostRoot" style="whiteSpace=wrap;html=1;" parent="1" vertex="1">
          <mxGeometry x="1770" y="200" width="120" height="60" as="geometry" />
        </mxCell>
        <mxCell id="dUaIV0kOqCtZzh9622oY-39" value="workInProgress" style="text;html=1;align=center;verticalAlign=middle;whiteSpace=wrap;rounded=0;" parent="1" vertex="1">
          <mxGeometry x="910" y="122" width="120" height="30" as="geometry" />
        </mxCell>
        <mxCell id="dUaIV0kOqCtZzh9622oY-41" value="" style="endArrow=classic;startArrow=classic;html=1;rounded=0;entryX=0;entryY=0.5;entryDx=0;entryDy=0;" parent="1" target="dUaIV0kOqCtZzh9622oY-38" edge="1">
          <mxGeometry width="50" height="50" relative="1" as="geometry">
            <mxPoint x="1670" y="230" as="sourcePoint" />
            <mxPoint x="1720" y="180" as="targetPoint" />
          </mxGeometry>
        </mxCell>
        <mxCell id="dUaIV0kOqCtZzh9622oY-42" value="alternate" style="edgeLabel;html=1;align=center;verticalAlign=middle;resizable=0;points=[];" parent="dUaIV0kOqCtZzh9622oY-41" vertex="1" connectable="0">
          <mxGeometry x="-0.0752" y="-2" relative="1" as="geometry">
            <mxPoint as="offset" />
          </mxGeometry>
        </mxCell>
        <mxCell id="dUaIV0kOqCtZzh9622oY-43" style="edgeStyle=orthogonalEdgeStyle;rounded=0;orthogonalLoop=1;jettySize=auto;html=1;exitX=0;exitY=0;exitDx=0;exitDy=0;entryX=1;entryY=1;entryDx=0;entryDy=0;" parent="1" source="dUaIV0kOqCtZzh9622oY-38" target="dUaIV0kOqCtZzh9622oY-32" edge="1">
          <mxGeometry relative="1" as="geometry">
            <mxPoint x="1668" y="150" as="targetPoint" />
          </mxGeometry>
        </mxCell>
        <mxCell id="dUaIV0kOqCtZzh9622oY-44" value="stateNode" style="edgeLabel;html=1;align=center;verticalAlign=middle;resizable=0;points=[];" parent="dUaIV0kOqCtZzh9622oY-43" vertex="1" connectable="0">
          <mxGeometry x="-0.0371" y="1" relative="1" as="geometry">
            <mxPoint as="offset" />
          </mxGeometry>
        </mxCell>
        <mxCell id="dUaIV0kOqCtZzh9622oY-45" value="IndeterminateComponent (App)" style="whiteSpace=wrap;html=1;" parent="1" vertex="1">
          <mxGeometry x="1740" y="310" width="180" height="60" as="geometry" />
        </mxCell>
        <mxCell id="dUaIV0kOqCtZzh9622oY-49" value="HostComponent (div)" style="whiteSpace=wrap;html=1;" parent="1" vertex="1">
          <mxGeometry x="1750" y="420" width="160" height="60" as="geometry" />
        </mxCell>
        <mxCell id="dUaIV0kOqCtZzh9622oY-53" value="resultingFirstChild" style="text;html=1;align=center;verticalAlign=middle;resizable=0;points=[];autosize=1;strokeColor=none;fillColor=none;" parent="1" vertex="1">
          <mxGeometry x="1060" y="124.55000000000001" width="120" height="30" as="geometry" />
        </mxCell>
        <mxCell id="dUaIV0kOqCtZzh9622oY-59" style="edgeStyle=orthogonalEdgeStyle;rounded=0;orthogonalLoop=1;jettySize=auto;html=1;exitX=1;exitY=0.5;exitDx=0;exitDy=0;entryX=0;entryY=0.5;entryDx=0;entryDy=0;" parent="1" source="dUaIV0kOqCtZzh9622oY-54" target="dUaIV0kOqCtZzh9622oY-58" edge="1">
          <mxGeometry relative="1" as="geometry" />
        </mxCell>
        <mxCell id="dUaIV0kOqCtZzh9622oY-60" value="sibling" style="edgeLabel;html=1;align=center;verticalAlign=middle;resizable=0;points=[];" parent="dUaIV0kOqCtZzh9622oY-59" vertex="1" connectable="0">
          <mxGeometry x="-0.0524" relative="1" as="geometry">
            <mxPoint as="offset" />
          </mxGeometry>
        </mxCell>
        <mxCell id="dUaIV0kOqCtZzh9622oY-54" value="IndeterminateComponent (Link)" style="whiteSpace=wrap;html=1;" parent="1" vertex="1">
          <mxGeometry x="1740" y="518" width="180" height="60" as="geometry" />
        </mxCell>
        <mxCell id="dUaIV0kOqCtZzh9622oY-56" value="previousNewFiber" style="text;whiteSpace=wrap;" parent="1" vertex="1">
          <mxGeometry x="1190" y="124.55000000000001" width="110" height="30" as="geometry" />
        </mxCell>
        <mxCell id="dUaIV0kOqCtZzh9622oY-62" style="edgeStyle=orthogonalEdgeStyle;rounded=0;orthogonalLoop=1;jettySize=auto;html=1;exitX=1;exitY=0.5;exitDx=0;exitDy=0;entryX=0;entryY=0.5;entryDx=0;entryDy=0;" parent="1" source="dUaIV0kOqCtZzh9622oY-58" target="dUaIV0kOqCtZzh9622oY-61" edge="1">
          <mxGeometry relative="1" as="geometry" />
        </mxCell>
        <mxCell id="dUaIV0kOqCtZzh9622oY-64" value="sibling" style="edgeLabel;html=1;align=center;verticalAlign=middle;resizable=0;points=[];" parent="dUaIV0kOqCtZzh9622oY-62" vertex="1" connectable="0">
          <mxGeometry x="-0.0879" relative="1" as="geometry">
            <mxPoint as="offset" />
          </mxGeometry>
        </mxCell>
        <mxCell id="dUaIV0kOqCtZzh9622oY-81" style="edgeStyle=orthogonalEdgeStyle;rounded=0;orthogonalLoop=1;jettySize=auto;html=1;exitX=0.5;exitY=0;exitDx=0;exitDy=0;entryX=1;entryY=0.5;entryDx=0;entryDy=0;" parent="1" source="dUaIV0kOqCtZzh9622oY-58" target="dUaIV0kOqCtZzh9622oY-49" edge="1">
          <mxGeometry relative="1" as="geometry" />
        </mxCell>
        <mxCell id="dUaIV0kOqCtZzh9622oY-82" value="return" style="edgeLabel;html=1;align=center;verticalAlign=middle;resizable=0;points=[];" parent="dUaIV0kOqCtZzh9622oY-81" vertex="1" connectable="0">
          <mxGeometry x="0.2628" y="-1" relative="1" as="geometry">
            <mxPoint as="offset" />
          </mxGeometry>
        </mxCell>
        <mxCell id="dUaIV0kOqCtZzh9622oY-58" value="HostComponent (br)" style="whiteSpace=wrap;html=1;" parent="1" vertex="1">
          <mxGeometry x="2020" y="518" width="160" height="60" as="geometry" />
        </mxCell>
        <mxCell id="dUaIV0kOqCtZzh9622oY-96" style="edgeStyle=orthogonalEdgeStyle;rounded=0;orthogonalLoop=1;jettySize=auto;html=1;exitX=0.5;exitY=0;exitDx=0;exitDy=0;entryX=1;entryY=0.25;entryDx=0;entryDy=0;" parent="1" source="dUaIV0kOqCtZzh9622oY-61" target="dUaIV0kOqCtZzh9622oY-49" edge="1">
          <mxGeometry relative="1" as="geometry" />
        </mxCell>
        <mxCell id="dUaIV0kOqCtZzh9622oY-97" value="return" style="edgeLabel;html=1;align=center;verticalAlign=middle;resizable=0;points=[];" parent="dUaIV0kOqCtZzh9622oY-96" vertex="1" connectable="0">
          <mxGeometry x="0.1562" y="-2" relative="1" as="geometry">
            <mxPoint as="offset" />
          </mxGeometry>
        </mxCell>
        <mxCell id="dUaIV0kOqCtZzh9622oY-61" value="IndeterminateComponent (Button)" style="whiteSpace=wrap;html=1;" parent="1" vertex="1">
          <mxGeometry x="2270" y="518" width="210" height="60" as="geometry" />
        </mxCell>
        <mxCell id="dUaIV0kOqCtZzh9622oY-67" value="HostComponent (a)" style="whiteSpace=wrap;html=1;" parent="1" vertex="1">
          <mxGeometry x="1750" y="630" width="160" height="60" as="geometry" />
        </mxCell>
        <mxCell id="dUaIV0kOqCtZzh9622oY-70" value="a" style="whiteSpace=wrap;html=1;" parent="1" vertex="1">
          <mxGeometry x="2750" y="550" width="120" height="60" as="geometry" />
        </mxCell>
        <mxCell id="dUaIV0kOqCtZzh9622oY-74" value="" style="endArrow=classic;startArrow=classic;html=1;rounded=0;exitX=0.5;exitY=0;exitDx=0;exitDy=0;" parent="1" source="dUaIV0kOqCtZzh9622oY-67" edge="1">
          <mxGeometry width="50" height="50" relative="1" as="geometry">
            <mxPoint x="1830" y="618" as="sourcePoint" />
            <mxPoint x="1830" y="580" as="targetPoint" />
          </mxGeometry>
        </mxCell>
        <mxCell id="dUaIV0kOqCtZzh9622oY-76" value="child / return" style="edgeLabel;html=1;align=center;verticalAlign=middle;resizable=0;points=[];" parent="dUaIV0kOqCtZzh9622oY-74" vertex="1" connectable="0">
          <mxGeometry x="-0.0794" relative="1" as="geometry">
            <mxPoint as="offset" />
          </mxGeometry>
        </mxCell>
        <mxCell id="dUaIV0kOqCtZzh9622oY-77" value="&lt;font style=&quot;font-size: 18px;&quot;&gt;begin HostRoot&lt;/font&gt;&lt;div&gt;&lt;font style=&quot;font-size: 18px;&quot;&gt;begin App - App() - useState() - createElement()&lt;br&gt;begin div&lt;br&gt;begin Link - Link() - createElement()&lt;br&gt;begin a&lt;/font&gt;&lt;/div&gt;&lt;div&gt;&lt;font style=&quot;font-size: 18px;&quot;&gt;complete a - tạo DOM a&lt;/font&gt;&lt;/div&gt;&lt;div&gt;&lt;font size=&quot;3&quot;&gt;complete Link&lt;/font&gt;&lt;/div&gt;&lt;div style=&quot;&quot;&gt;&lt;font size=&quot;3&quot;&gt;begin br&lt;/font&gt;&lt;/div&gt;&lt;div&gt;&lt;font size=&quot;3&quot;&gt;complete br - tạo DOM br&lt;/font&gt;&lt;/div&gt;&lt;div&gt;&lt;font size=&quot;3&quot;&gt;begin Button - Button() - createElement()&lt;br&gt;begin button&lt;br&gt;begin &quot;Click me - &quot;&lt;br&gt;complete &quot;Click me - &quot; - tạo DOM &quot;Click me - &quot;&lt;br&gt;begin &quot;0&quot;&lt;br&gt;complete &quot;0&quot; - t&lt;/font&gt;&lt;span style=&quot;background-color: initial;&quot;&gt;&lt;font size=&quot;3&quot;&gt;ạo DOM &quot;0&quot;&lt;/font&gt;&lt;/span&gt;&lt;/div&gt;&lt;div&gt;&lt;span style=&quot;background-color: initial;&quot;&gt;&lt;font size=&quot;3&quot;&gt;complete button - t&lt;/font&gt;&lt;/span&gt;&lt;span style=&quot;background-color: initial;&quot;&gt;&lt;font size=&quot;3&quot;&gt;ạo DOM button - append button l&lt;/font&gt;&lt;/span&gt;&lt;span style=&quot;background-color: initial;&quot;&gt;&lt;font size=&quot;3&quot;&gt;ần l&lt;/font&gt;&lt;/span&gt;&lt;span style=&quot;background-color: initial;&quot;&gt;&lt;font size=&quot;3&quot;&gt;ư&lt;/font&gt;&lt;/span&gt;&lt;span style=&quot;background-color: initial;&quot;&gt;&lt;font size=&quot;3&quot;&gt;ợt&amp;nbsp;&lt;/font&gt;&lt;/span&gt;&lt;span style=&quot;background-color: initial;&quot;&gt;&lt;font size=&quot;3&quot;&gt;v&lt;/font&gt;&lt;/span&gt;&lt;span style=&quot;background-color: initial;&quot;&gt;&lt;font size=&quot;3&quot;&gt;ới &quot;Click me - &quot;,&lt;/font&gt;&lt;/span&gt;&lt;span style=&quot;background-color: initial;&quot;&gt;&lt;font size=&quot;3&quot;&gt;&amp;nbsp;&quot;0&quot;&lt;/font&gt;&lt;/span&gt;&lt;/div&gt;&lt;div&gt;&lt;span style=&quot;background-color: initial;&quot;&gt;&lt;font size=&quot;3&quot;&gt;complete Button&lt;/font&gt;&lt;/span&gt;&lt;/div&gt;&lt;div&gt;&lt;span style=&quot;background-color: initial;&quot;&gt;&lt;font size=&quot;3&quot;&gt;complete div - t&lt;/font&gt;&lt;/span&gt;&lt;span style=&quot;background-color: initial;&quot;&gt;&lt;font size=&quot;3&quot;&gt;ạo DOM div - append div l&lt;/font&gt;&lt;/span&gt;&lt;span style=&quot;background-color: initial;&quot;&gt;&lt;font size=&quot;3&quot;&gt;ần l&lt;/font&gt;&lt;/span&gt;&lt;span style=&quot;background-color: initial;&quot;&gt;&lt;font size=&quot;3&quot;&gt;ư&lt;/font&gt;&lt;/span&gt;&lt;span style=&quot;background-color: initial;&quot;&gt;&lt;font size=&quot;3&quot;&gt;ợt v&lt;/font&gt;&lt;/span&gt;&lt;span style=&quot;background-color: initial;&quot;&gt;&lt;font size=&quot;3&quot;&gt;ới&amp;nbsp;&lt;/font&gt;&lt;/span&gt;&lt;span style=&quot;background-color: initial;&quot;&gt;&lt;font size=&quot;3&quot;&gt;v&lt;/font&gt;&lt;/span&gt;&lt;span style=&quot;background-color: initial;&quot;&gt;&lt;font size=&quot;3&quot;&gt;ới a, br, button&lt;/font&gt;&lt;/span&gt;&lt;/div&gt;&lt;div&gt;&lt;span style=&quot;background-color: initial;&quot;&gt;&lt;font size=&quot;3&quot;&gt;complete App&lt;br&gt;complete H&lt;/font&gt;&lt;/span&gt;&lt;span style=&quot;background-color: initial;&quot;&gt;&lt;font size=&quot;3&quot;&gt;ostRoot&lt;/font&gt;&lt;/span&gt;&lt;/div&gt;" style="text;html=1;align=left;verticalAlign=middle;resizable=0;points=[];autosize=1;strokeColor=none;fillColor=none;" parent="1" vertex="1">
          <mxGeometry x="860" y="340" width="590" height="410" as="geometry" />
        </mxCell>
        <mxCell id="dUaIV0kOqCtZzh9622oY-83" value="br" style="whiteSpace=wrap;html=1;" parent="1" vertex="1">
          <mxGeometry x="2940" y="550" width="120" height="60" as="geometry" />
        </mxCell>
        <mxCell id="dUaIV0kOqCtZzh9622oY-88" value="HostComponent (button)" style="whiteSpace=wrap;html=1;" parent="1" vertex="1">
          <mxGeometry x="2295" y="630" width="160" height="60" as="geometry" />
        </mxCell>
        <mxCell id="dUaIV0kOqCtZzh9622oY-92" value="" style="endArrow=classic;startArrow=classic;html=1;rounded=0;exitX=0.5;exitY=0;exitDx=0;exitDy=0;entryX=0.5;entryY=1;entryDx=0;entryDy=0;" parent="1" source="dUaIV0kOqCtZzh9622oY-88" target="dUaIV0kOqCtZzh9622oY-61" edge="1">
          <mxGeometry width="50" height="50" relative="1" as="geometry">
            <mxPoint x="2330" y="628" as="sourcePoint" />
            <mxPoint x="2370" y="590" as="targetPoint" />
          </mxGeometry>
        </mxCell>
        <mxCell id="dUaIV0kOqCtZzh9622oY-93" value="child / return" style="edgeLabel;html=1;align=center;verticalAlign=middle;resizable=0;points=[];" parent="dUaIV0kOqCtZzh9622oY-92" vertex="1" connectable="0">
          <mxGeometry x="0.0822" y="1" relative="1" as="geometry">
            <mxPoint as="offset" />
          </mxGeometry>
        </mxCell>
        <mxCell id="dUaIV0kOqCtZzh9622oY-98" value="" style="endArrow=classic;startArrow=classic;html=1;rounded=0;entryX=0.5;entryY=1;entryDx=0;entryDy=0;exitX=0.5;exitY=0;exitDx=0;exitDy=0;" parent="1" source="dUaIV0kOqCtZzh9622oY-54" target="dUaIV0kOqCtZzh9622oY-49" edge="1">
          <mxGeometry width="50" height="50" relative="1" as="geometry">
            <mxPoint x="2180" y="510" as="sourcePoint" />
            <mxPoint x="2230" y="460" as="targetPoint" />
          </mxGeometry>
        </mxCell>
        <mxCell id="dUaIV0kOqCtZzh9622oY-99" value="child /return" style="edgeLabel;html=1;align=center;verticalAlign=middle;resizable=0;points=[];" parent="dUaIV0kOqCtZzh9622oY-98" vertex="1" connectable="0">
          <mxGeometry x="0.0234" y="2" relative="1" as="geometry">
            <mxPoint as="offset" />
          </mxGeometry>
        </mxCell>
        <mxCell id="dUaIV0kOqCtZzh9622oY-100" value="" style="endArrow=classic;startArrow=classic;html=1;rounded=0;entryX=0.5;entryY=1;entryDx=0;entryDy=0;" parent="1" source="dUaIV0kOqCtZzh9622oY-49" target="dUaIV0kOqCtZzh9622oY-45" edge="1">
          <mxGeometry width="50" height="50" relative="1" as="geometry">
            <mxPoint x="2180" y="510" as="sourcePoint" />
            <mxPoint x="2230" y="460" as="targetPoint" />
          </mxGeometry>
        </mxCell>
        <mxCell id="dUaIV0kOqCtZzh9622oY-101" value="child / return" style="edgeLabel;html=1;align=center;verticalAlign=middle;resizable=0;points=[];" parent="dUaIV0kOqCtZzh9622oY-100" vertex="1" connectable="0">
          <mxGeometry x="-0.0695" y="1" relative="1" as="geometry">
            <mxPoint as="offset" />
          </mxGeometry>
        </mxCell>
        <mxCell id="dUaIV0kOqCtZzh9622oY-102" value="" style="endArrow=classic;startArrow=classic;html=1;rounded=0;entryX=0.5;entryY=1;entryDx=0;entryDy=0;" parent="1" source="dUaIV0kOqCtZzh9622oY-45" target="dUaIV0kOqCtZzh9622oY-38" edge="1">
          <mxGeometry width="50" height="50" relative="1" as="geometry">
            <mxPoint x="2020" y="410" as="sourcePoint" />
            <mxPoint x="2070" y="360" as="targetPoint" />
          </mxGeometry>
        </mxCell>
        <mxCell id="dUaIV0kOqCtZzh9622oY-103" value="child / return" style="edgeLabel;html=1;align=center;verticalAlign=middle;resizable=0;points=[];" parent="dUaIV0kOqCtZzh9622oY-102" vertex="1" connectable="0">
          <mxGeometry x="0.0925" y="2" relative="1" as="geometry">
            <mxPoint as="offset" />
          </mxGeometry>
        </mxCell>
        <mxCell id="dUaIV0kOqCtZzh9622oY-112" style="edgeStyle=orthogonalEdgeStyle;rounded=0;orthogonalLoop=1;jettySize=auto;html=1;exitX=1;exitY=0.5;exitDx=0;exitDy=0;entryX=0;entryY=0.5;entryDx=0;entryDy=0;" parent="1" source="dUaIV0kOqCtZzh9622oY-104" target="dUaIV0kOqCtZzh9622oY-109" edge="1">
          <mxGeometry relative="1" as="geometry" />
        </mxCell>
        <mxCell id="dUaIV0kOqCtZzh9622oY-113" value="sibling" style="edgeLabel;html=1;align=center;verticalAlign=middle;resizable=0;points=[];" parent="dUaIV0kOqCtZzh9622oY-112" vertex="1" connectable="0">
          <mxGeometry x="0.0227" relative="1" as="geometry">
            <mxPoint as="offset" />
          </mxGeometry>
        </mxCell>
        <mxCell id="dUaIV0kOqCtZzh9622oY-104" value="HostText (&quot;Click me - &quot;)" style="whiteSpace=wrap;html=1;" parent="1" vertex="1">
          <mxGeometry x="2295" y="750" width="160" height="60" as="geometry" />
        </mxCell>
        <mxCell id="dUaIV0kOqCtZzh9622oY-107" value="" style="endArrow=classic;startArrow=classic;html=1;rounded=0;entryX=0.5;entryY=1;entryDx=0;entryDy=0;exitX=0.5;exitY=0;exitDx=0;exitDy=0;" parent="1" source="dUaIV0kOqCtZzh9622oY-104" target="dUaIV0kOqCtZzh9622oY-88" edge="1">
          <mxGeometry width="50" height="50" relative="1" as="geometry">
            <mxPoint x="2375" y="740" as="sourcePoint" />
            <mxPoint x="2410" y="620" as="targetPoint" />
          </mxGeometry>
        </mxCell>
        <mxCell id="dUaIV0kOqCtZzh9622oY-108" value="child / return" style="edgeLabel;html=1;align=center;verticalAlign=middle;resizable=0;points=[];" parent="dUaIV0kOqCtZzh9622oY-107" vertex="1" connectable="0">
          <mxGeometry x="0.091" relative="1" as="geometry">
            <mxPoint as="offset" />
          </mxGeometry>
        </mxCell>
        <mxCell id="dUaIV0kOqCtZzh9622oY-109" value="HostText (&quot;0&quot;)" style="whiteSpace=wrap;html=1;" parent="1" vertex="1">
          <mxGeometry x="2530" y="750" width="160" height="60" as="geometry" />
        </mxCell>
        <mxCell id="dUaIV0kOqCtZzh9622oY-110" style="edgeStyle=orthogonalEdgeStyle;rounded=0;orthogonalLoop=1;jettySize=auto;html=1;exitX=0.5;exitY=0;exitDx=0;exitDy=0;entryX=0.81;entryY=1.011;entryDx=0;entryDy=0;entryPerimeter=0;" parent="1" source="dUaIV0kOqCtZzh9622oY-109" target="dUaIV0kOqCtZzh9622oY-88" edge="1">
          <mxGeometry relative="1" as="geometry" />
        </mxCell>
        <mxCell id="dUaIV0kOqCtZzh9622oY-111" value="return" style="edgeLabel;html=1;align=center;verticalAlign=middle;resizable=0;points=[];" parent="dUaIV0kOqCtZzh9622oY-110" vertex="1" connectable="0">
          <mxGeometry x="0.0026" relative="1" as="geometry">
            <mxPoint as="offset" />
          </mxGeometry>
        </mxCell>
        <mxCell id="dUaIV0kOqCtZzh9622oY-114" value="&quot;Click me - &quot;" style="whiteSpace=wrap;html=1;" parent="1" vertex="1">
          <mxGeometry x="2960" y="650" width="120" height="60" as="geometry" />
        </mxCell>
        <mxCell id="dUaIV0kOqCtZzh9622oY-117" style="edgeStyle=orthogonalEdgeStyle;rounded=0;orthogonalLoop=1;jettySize=auto;html=1;exitX=0.5;exitY=1;exitDx=0;exitDy=0;" parent="1" source="dUaIV0kOqCtZzh9622oY-39" edge="1">
          <mxGeometry relative="1" as="geometry">
            <mxPoint x="1000" y="194.55" as="targetPoint" />
          </mxGeometry>
        </mxCell>
        <mxCell id="dUaIV0kOqCtZzh9622oY-118" value="&quot;0&quot;" style="whiteSpace=wrap;html=1;" parent="1" vertex="1">
          <mxGeometry x="3220" y="650" width="120" height="60" as="geometry" />
        </mxCell>
        <mxCell id="dUaIV0kOqCtZzh9622oY-134" style="edgeStyle=orthogonalEdgeStyle;rounded=0;orthogonalLoop=1;jettySize=auto;html=1;exitX=0.25;exitY=1;exitDx=0;exitDy=0;entryX=0.25;entryY=0;entryDx=0;entryDy=0;" parent="1" source="dUaIV0kOqCtZzh9622oY-123" target="dUaIV0kOqCtZzh9622oY-114" edge="1">
          <mxGeometry relative="1" as="geometry" />
        </mxCell>
        <mxCell id="dUaIV0kOqCtZzh9622oY-135" value="appendChild" style="edgeLabel;html=1;align=center;verticalAlign=middle;resizable=0;points=[];" parent="dUaIV0kOqCtZzh9622oY-134" vertex="1" connectable="0">
          <mxGeometry x="-0.0993" y="-3" relative="1" as="geometry">
            <mxPoint as="offset" />
          </mxGeometry>
        </mxCell>
        <mxCell id="dUaIV0kOqCtZzh9622oY-154" style="edgeStyle=orthogonalEdgeStyle;rounded=0;orthogonalLoop=1;jettySize=auto;html=1;exitX=0.75;exitY=1;exitDx=0;exitDy=0;entryX=0.75;entryY=0;entryDx=0;entryDy=0;" parent="1" source="dUaIV0kOqCtZzh9622oY-123" target="dUaIV0kOqCtZzh9622oY-118" edge="1">
          <mxGeometry relative="1" as="geometry" />
        </mxCell>
        <mxCell id="dUaIV0kOqCtZzh9622oY-155" value="appendChid" style="edgeLabel;html=1;align=center;verticalAlign=middle;resizable=0;points=[];" parent="dUaIV0kOqCtZzh9622oY-154" vertex="1" connectable="0">
          <mxGeometry x="0.0036" relative="1" as="geometry">
            <mxPoint as="offset" />
          </mxGeometry>
        </mxCell>
        <mxCell id="dUaIV0kOqCtZzh9622oY-123" value="button" style="whiteSpace=wrap;html=1;" parent="1" vertex="1">
          <mxGeometry x="3100" y="550" width="120" height="60" as="geometry" />
        </mxCell>
        <mxCell id="dUaIV0kOqCtZzh9622oY-142" style="edgeStyle=orthogonalEdgeStyle;rounded=0;orthogonalLoop=1;jettySize=auto;html=1;exitX=0.5;exitY=1;exitDx=0;exitDy=0;entryX=0.5;entryY=0;entryDx=0;entryDy=0;" parent="1" source="dUaIV0kOqCtZzh9622oY-138" target="dUaIV0kOqCtZzh9622oY-83" edge="1">
          <mxGeometry relative="1" as="geometry" />
        </mxCell>
        <mxCell id="dUaIV0kOqCtZzh9622oY-147" value="appendChild" style="edgeLabel;html=1;align=center;verticalAlign=middle;resizable=0;points=[];" parent="dUaIV0kOqCtZzh9622oY-142" vertex="1" connectable="0">
          <mxGeometry x="-0.0249" y="1" relative="1" as="geometry">
            <mxPoint as="offset" />
          </mxGeometry>
        </mxCell>
        <mxCell id="dUaIV0kOqCtZzh9622oY-144" style="edgeStyle=orthogonalEdgeStyle;rounded=0;orthogonalLoop=1;jettySize=auto;html=1;exitX=0.75;exitY=1;exitDx=0;exitDy=0;entryX=0.5;entryY=0;entryDx=0;entryDy=0;" parent="1" source="dUaIV0kOqCtZzh9622oY-138" target="dUaIV0kOqCtZzh9622oY-123" edge="1">
          <mxGeometry relative="1" as="geometry" />
        </mxCell>
        <mxCell id="dUaIV0kOqCtZzh9622oY-148" value="appendChild" style="edgeLabel;html=1;align=center;verticalAlign=middle;resizable=0;points=[];" parent="dUaIV0kOqCtZzh9622oY-144" vertex="1" connectable="0">
          <mxGeometry x="0.0006" y="1" relative="1" as="geometry">
            <mxPoint x="-1" as="offset" />
          </mxGeometry>
        </mxCell>
        <mxCell id="dUaIV0kOqCtZzh9622oY-145" style="edgeStyle=orthogonalEdgeStyle;rounded=0;orthogonalLoop=1;jettySize=auto;html=1;exitX=0.25;exitY=1;exitDx=0;exitDy=0;entryX=0.5;entryY=0;entryDx=0;entryDy=0;" parent="1" source="dUaIV0kOqCtZzh9622oY-138" target="dUaIV0kOqCtZzh9622oY-70" edge="1">
          <mxGeometry relative="1" as="geometry" />
        </mxCell>
        <mxCell id="dUaIV0kOqCtZzh9622oY-146" value="appendChild" style="edgeLabel;html=1;align=center;verticalAlign=middle;resizable=0;points=[];" parent="dUaIV0kOqCtZzh9622oY-145" vertex="1" connectable="0">
          <mxGeometry x="0.0273" y="-2" relative="1" as="geometry">
            <mxPoint as="offset" />
          </mxGeometry>
        </mxCell>
        <mxCell id="dUaIV0kOqCtZzh9622oY-138" value="div" style="whiteSpace=wrap;html=1;" parent="1" vertex="1">
          <mxGeometry x="2940" y="440" width="120" height="60" as="geometry" />
        </mxCell>
        <mxCell id="dUaIV0kOqCtZzh9622oY-186" style="edgeStyle=orthogonalEdgeStyle;rounded=0;orthogonalLoop=1;jettySize=auto;html=1;exitX=1;exitY=0.5;exitDx=0;exitDy=0;entryX=0.5;entryY=0;entryDx=0;entryDy=0;" parent="1" source="dUaIV0kOqCtZzh9622oY-188" target="dUaIV0kOqCtZzh9622oY-192" edge="1">
          <mxGeometry relative="1" as="geometry" />
        </mxCell>
        <mxCell id="dUaIV0kOqCtZzh9622oY-187" value="current" style="edgeLabel;html=1;align=center;verticalAlign=middle;resizable=0;points=[];" parent="dUaIV0kOqCtZzh9622oY-186" vertex="1" connectable="0">
          <mxGeometry x="0.0086" y="2" relative="1" as="geometry">
            <mxPoint as="offset" />
          </mxGeometry>
        </mxCell>
        <mxCell id="dUaIV0kOqCtZzh9622oY-188" value="FiberRoot" style="rounded=0;whiteSpace=wrap;html=1;" parent="1" vertex="1">
          <mxGeometry x="3490" y="180" width="120" height="60" as="geometry" />
        </mxCell>
        <mxCell id="dUaIV0kOqCtZzh9622oY-189" style="edgeStyle=orthogonalEdgeStyle;rounded=0;orthogonalLoop=1;jettySize=auto;html=1;exitX=0.75;exitY=0;exitDx=0;exitDy=0;" parent="1" source="dUaIV0kOqCtZzh9622oY-191" edge="1">
          <mxGeometry relative="1" as="geometry">
            <mxPoint x="3579.5714285714284" y="240.00000000000006" as="targetPoint" />
          </mxGeometry>
        </mxCell>
        <mxCell id="dUaIV0kOqCtZzh9622oY-190" value="stateNode" style="edgeLabel;html=1;align=center;verticalAlign=middle;resizable=0;points=[];" parent="dUaIV0kOqCtZzh9622oY-189" vertex="1" connectable="0">
          <mxGeometry x="0.0071" relative="1" as="geometry">
            <mxPoint y="1" as="offset" />
          </mxGeometry>
        </mxCell>
        <mxCell id="dUaIV0kOqCtZzh9622oY-191" value="HostRoot" style="rounded=0;whiteSpace=wrap;html=1;" parent="1" vertex="1">
          <mxGeometry x="3490" y="300" width="120" height="60" as="geometry" />
        </mxCell>
        <mxCell id="dUaIV0kOqCtZzh9622oY-192" value="HostRoot" style="whiteSpace=wrap;html=1;" parent="1" vertex="1">
          <mxGeometry x="3710" y="300" width="120" height="60" as="geometry" />
        </mxCell>
        <mxCell id="dUaIV0kOqCtZzh9622oY-193" value="" style="endArrow=classic;startArrow=classic;html=1;rounded=0;entryX=0;entryY=0.5;entryDx=0;entryDy=0;" parent="1" target="dUaIV0kOqCtZzh9622oY-192" edge="1">
          <mxGeometry width="50" height="50" relative="1" as="geometry">
            <mxPoint x="3610" y="330" as="sourcePoint" />
            <mxPoint x="3660" y="280" as="targetPoint" />
          </mxGeometry>
        </mxCell>
        <mxCell id="dUaIV0kOqCtZzh9622oY-194" value="alternate" style="edgeLabel;html=1;align=center;verticalAlign=middle;resizable=0;points=[];" parent="dUaIV0kOqCtZzh9622oY-193" vertex="1" connectable="0">
          <mxGeometry x="-0.0752" y="-2" relative="1" as="geometry">
            <mxPoint as="offset" />
          </mxGeometry>
        </mxCell>
        <mxCell id="dUaIV0kOqCtZzh9622oY-195" style="edgeStyle=orthogonalEdgeStyle;rounded=0;orthogonalLoop=1;jettySize=auto;html=1;exitX=0;exitY=0;exitDx=0;exitDy=0;entryX=1;entryY=1;entryDx=0;entryDy=0;" parent="1" source="dUaIV0kOqCtZzh9622oY-192" target="dUaIV0kOqCtZzh9622oY-188" edge="1">
          <mxGeometry relative="1" as="geometry">
            <mxPoint x="3608" y="250" as="targetPoint" />
          </mxGeometry>
        </mxCell>
        <mxCell id="dUaIV0kOqCtZzh9622oY-196" value="stateNode" style="edgeLabel;html=1;align=center;verticalAlign=middle;resizable=0;points=[];" parent="dUaIV0kOqCtZzh9622oY-195" vertex="1" connectable="0">
          <mxGeometry x="-0.0371" y="1" relative="1" as="geometry">
            <mxPoint as="offset" />
          </mxGeometry>
        </mxCell>
        <mxCell id="dUaIV0kOqCtZzh9622oY-197" value="IndeterminateComponent (App)" style="whiteSpace=wrap;html=1;" parent="1" vertex="1">
          <mxGeometry x="3680" y="410" width="180" height="60" as="geometry" />
        </mxCell>
        <mxCell id="dUaIV0kOqCtZzh9622oY-198" value="HostComponent (div)" style="whiteSpace=wrap;html=1;" parent="1" vertex="1">
          <mxGeometry x="3690" y="520" width="160" height="60" as="geometry" />
        </mxCell>
        <mxCell id="dUaIV0kOqCtZzh9622oY-199" style="edgeStyle=orthogonalEdgeStyle;rounded=0;orthogonalLoop=1;jettySize=auto;html=1;exitX=1;exitY=0.5;exitDx=0;exitDy=0;entryX=0;entryY=0.5;entryDx=0;entryDy=0;" parent="1" source="dUaIV0kOqCtZzh9622oY-201" target="dUaIV0kOqCtZzh9622oY-206" edge="1">
          <mxGeometry relative="1" as="geometry" />
        </mxCell>
        <mxCell id="dUaIV0kOqCtZzh9622oY-200" value="sibling" style="edgeLabel;html=1;align=center;verticalAlign=middle;resizable=0;points=[];" parent="dUaIV0kOqCtZzh9622oY-199" vertex="1" connectable="0">
          <mxGeometry x="-0.0524" relative="1" as="geometry">
            <mxPoint as="offset" />
          </mxGeometry>
        </mxCell>
        <mxCell id="dUaIV0kOqCtZzh9622oY-201" value="IndeterminateComponent (Link)" style="whiteSpace=wrap;html=1;" parent="1" vertex="1">
          <mxGeometry x="3680" y="618" width="180" height="60" as="geometry" />
        </mxCell>
        <mxCell id="dUaIV0kOqCtZzh9622oY-202" style="edgeStyle=orthogonalEdgeStyle;rounded=0;orthogonalLoop=1;jettySize=auto;html=1;exitX=1;exitY=0.5;exitDx=0;exitDy=0;entryX=0;entryY=0.5;entryDx=0;entryDy=0;" parent="1" source="dUaIV0kOqCtZzh9622oY-206" target="dUaIV0kOqCtZzh9622oY-209" edge="1">
          <mxGeometry relative="1" as="geometry" />
        </mxCell>
        <mxCell id="dUaIV0kOqCtZzh9622oY-203" value="sibling" style="edgeLabel;html=1;align=center;verticalAlign=middle;resizable=0;points=[];" parent="dUaIV0kOqCtZzh9622oY-202" vertex="1" connectable="0">
          <mxGeometry x="-0.0879" relative="1" as="geometry">
            <mxPoint as="offset" />
          </mxGeometry>
        </mxCell>
        <mxCell id="dUaIV0kOqCtZzh9622oY-204" style="edgeStyle=orthogonalEdgeStyle;rounded=0;orthogonalLoop=1;jettySize=auto;html=1;exitX=0.5;exitY=0;exitDx=0;exitDy=0;entryX=1;entryY=0.5;entryDx=0;entryDy=0;" parent="1" source="dUaIV0kOqCtZzh9622oY-206" target="dUaIV0kOqCtZzh9622oY-198" edge="1">
          <mxGeometry relative="1" as="geometry" />
        </mxCell>
        <mxCell id="dUaIV0kOqCtZzh9622oY-205" value="return" style="edgeLabel;html=1;align=center;verticalAlign=middle;resizable=0;points=[];" parent="dUaIV0kOqCtZzh9622oY-204" vertex="1" connectable="0">
          <mxGeometry x="0.2628" y="-1" relative="1" as="geometry">
            <mxPoint as="offset" />
          </mxGeometry>
        </mxCell>
        <mxCell id="dUaIV0kOqCtZzh9622oY-206" value="HostComponent (br)" style="whiteSpace=wrap;html=1;" parent="1" vertex="1">
          <mxGeometry x="3960" y="618" width="160" height="60" as="geometry" />
        </mxCell>
        <mxCell id="dUaIV0kOqCtZzh9622oY-207" style="edgeStyle=orthogonalEdgeStyle;rounded=0;orthogonalLoop=1;jettySize=auto;html=1;exitX=0.5;exitY=0;exitDx=0;exitDy=0;entryX=1;entryY=0.25;entryDx=0;entryDy=0;" parent="1" source="dUaIV0kOqCtZzh9622oY-209" target="dUaIV0kOqCtZzh9622oY-198" edge="1">
          <mxGeometry relative="1" as="geometry" />
        </mxCell>
        <mxCell id="dUaIV0kOqCtZzh9622oY-208" value="return" style="edgeLabel;html=1;align=center;verticalAlign=middle;resizable=0;points=[];" parent="dUaIV0kOqCtZzh9622oY-207" vertex="1" connectable="0">
          <mxGeometry x="0.1562" y="-2" relative="1" as="geometry">
            <mxPoint as="offset" />
          </mxGeometry>
        </mxCell>
        <mxCell id="dUaIV0kOqCtZzh9622oY-209" value="IndeterminateComponent (Button)" style="whiteSpace=wrap;html=1;" parent="1" vertex="1">
          <mxGeometry x="4210" y="618" width="210" height="60" as="geometry" />
        </mxCell>
        <mxCell id="dUaIV0kOqCtZzh9622oY-210" value="HostComponent (a)" style="whiteSpace=wrap;html=1;" parent="1" vertex="1">
          <mxGeometry x="3690" y="730" width="160" height="60" as="geometry" />
        </mxCell>
        <mxCell id="dUaIV0kOqCtZzh9622oY-211" value="" style="endArrow=classic;startArrow=classic;html=1;rounded=0;exitX=0.5;exitY=0;exitDx=0;exitDy=0;" parent="1" source="dUaIV0kOqCtZzh9622oY-210" edge="1">
          <mxGeometry width="50" height="50" relative="1" as="geometry">
            <mxPoint x="3770" y="718" as="sourcePoint" />
            <mxPoint x="3770" y="680" as="targetPoint" />
          </mxGeometry>
        </mxCell>
        <mxCell id="dUaIV0kOqCtZzh9622oY-212" value="child / return" style="edgeLabel;html=1;align=center;verticalAlign=middle;resizable=0;points=[];" parent="dUaIV0kOqCtZzh9622oY-211" vertex="1" connectable="0">
          <mxGeometry x="-0.0794" relative="1" as="geometry">
            <mxPoint as="offset" />
          </mxGeometry>
        </mxCell>
        <mxCell id="dUaIV0kOqCtZzh9622oY-213" value="HostComponent (button)" style="whiteSpace=wrap;html=1;" parent="1" vertex="1">
          <mxGeometry x="4235" y="730" width="160" height="60" as="geometry" />
        </mxCell>
        <mxCell id="dUaIV0kOqCtZzh9622oY-214" value="" style="endArrow=classic;startArrow=classic;html=1;rounded=0;exitX=0.5;exitY=0;exitDx=0;exitDy=0;entryX=0.5;entryY=1;entryDx=0;entryDy=0;" parent="1" source="dUaIV0kOqCtZzh9622oY-213" target="dUaIV0kOqCtZzh9622oY-209" edge="1">
          <mxGeometry width="50" height="50" relative="1" as="geometry">
            <mxPoint x="4270" y="728" as="sourcePoint" />
            <mxPoint x="4310" y="690" as="targetPoint" />
          </mxGeometry>
        </mxCell>
        <mxCell id="dUaIV0kOqCtZzh9622oY-215" value="child / return" style="edgeLabel;html=1;align=center;verticalAlign=middle;resizable=0;points=[];" parent="dUaIV0kOqCtZzh9622oY-214" vertex="1" connectable="0">
          <mxGeometry x="0.0822" y="1" relative="1" as="geometry">
            <mxPoint as="offset" />
          </mxGeometry>
        </mxCell>
        <mxCell id="dUaIV0kOqCtZzh9622oY-216" value="" style="endArrow=classic;startArrow=classic;html=1;rounded=0;entryX=0.5;entryY=1;entryDx=0;entryDy=0;exitX=0.5;exitY=0;exitDx=0;exitDy=0;" parent="1" source="dUaIV0kOqCtZzh9622oY-201" target="dUaIV0kOqCtZzh9622oY-198" edge="1">
          <mxGeometry width="50" height="50" relative="1" as="geometry">
            <mxPoint x="4120" y="610" as="sourcePoint" />
            <mxPoint x="4170" y="560" as="targetPoint" />
          </mxGeometry>
        </mxCell>
        <mxCell id="dUaIV0kOqCtZzh9622oY-217" value="child /return" style="edgeLabel;html=1;align=center;verticalAlign=middle;resizable=0;points=[];" parent="dUaIV0kOqCtZzh9622oY-216" vertex="1" connectable="0">
          <mxGeometry x="0.0234" y="2" relative="1" as="geometry">
            <mxPoint as="offset" />
          </mxGeometry>
        </mxCell>
        <mxCell id="dUaIV0kOqCtZzh9622oY-218" value="" style="endArrow=classic;startArrow=classic;html=1;rounded=0;entryX=0.5;entryY=1;entryDx=0;entryDy=0;" parent="1" source="dUaIV0kOqCtZzh9622oY-198" target="dUaIV0kOqCtZzh9622oY-197" edge="1">
          <mxGeometry width="50" height="50" relative="1" as="geometry">
            <mxPoint x="4120" y="610" as="sourcePoint" />
            <mxPoint x="4170" y="560" as="targetPoint" />
          </mxGeometry>
        </mxCell>
        <mxCell id="dUaIV0kOqCtZzh9622oY-219" value="child / return" style="edgeLabel;html=1;align=center;verticalAlign=middle;resizable=0;points=[];" parent="dUaIV0kOqCtZzh9622oY-218" vertex="1" connectable="0">
          <mxGeometry x="-0.0695" y="1" relative="1" as="geometry">
            <mxPoint as="offset" />
          </mxGeometry>
        </mxCell>
        <mxCell id="dUaIV0kOqCtZzh9622oY-220" value="" style="endArrow=classic;startArrow=classic;html=1;rounded=0;entryX=0.5;entryY=1;entryDx=0;entryDy=0;" parent="1" source="dUaIV0kOqCtZzh9622oY-197" target="dUaIV0kOqCtZzh9622oY-192" edge="1">
          <mxGeometry width="50" height="50" relative="1" as="geometry">
            <mxPoint x="3960" y="510" as="sourcePoint" />
            <mxPoint x="4010" y="460" as="targetPoint" />
          </mxGeometry>
        </mxCell>
        <mxCell id="dUaIV0kOqCtZzh9622oY-221" value="child / return" style="edgeLabel;html=1;align=center;verticalAlign=middle;resizable=0;points=[];" parent="dUaIV0kOqCtZzh9622oY-220" vertex="1" connectable="0">
          <mxGeometry x="0.0925" y="2" relative="1" as="geometry">
            <mxPoint as="offset" />
          </mxGeometry>
        </mxCell>
        <mxCell id="dUaIV0kOqCtZzh9622oY-222" style="edgeStyle=orthogonalEdgeStyle;rounded=0;orthogonalLoop=1;jettySize=auto;html=1;exitX=1;exitY=0.5;exitDx=0;exitDy=0;entryX=0;entryY=0.5;entryDx=0;entryDy=0;" parent="1" source="dUaIV0kOqCtZzh9622oY-224" target="dUaIV0kOqCtZzh9622oY-227" edge="1">
          <mxGeometry relative="1" as="geometry" />
        </mxCell>
        <mxCell id="dUaIV0kOqCtZzh9622oY-223" value="sibling" style="edgeLabel;html=1;align=center;verticalAlign=middle;resizable=0;points=[];" parent="dUaIV0kOqCtZzh9622oY-222" vertex="1" connectable="0">
          <mxGeometry x="0.0227" relative="1" as="geometry">
            <mxPoint as="offset" />
          </mxGeometry>
        </mxCell>
        <mxCell id="dUaIV0kOqCtZzh9622oY-224" value="HostText (&quot;Click me - &quot;)" style="whiteSpace=wrap;html=1;" parent="1" vertex="1">
          <mxGeometry x="4235" y="850" width="160" height="60" as="geometry" />
        </mxCell>
        <mxCell id="dUaIV0kOqCtZzh9622oY-225" value="" style="endArrow=classic;startArrow=classic;html=1;rounded=0;entryX=0.5;entryY=1;entryDx=0;entryDy=0;exitX=0.5;exitY=0;exitDx=0;exitDy=0;" parent="1" source="dUaIV0kOqCtZzh9622oY-224" target="dUaIV0kOqCtZzh9622oY-213" edge="1">
          <mxGeometry width="50" height="50" relative="1" as="geometry">
            <mxPoint x="4315" y="840" as="sourcePoint" />
            <mxPoint x="4350" y="720" as="targetPoint" />
          </mxGeometry>
        </mxCell>
        <mxCell id="dUaIV0kOqCtZzh9622oY-226" value="child / return" style="edgeLabel;html=1;align=center;verticalAlign=middle;resizable=0;points=[];" parent="dUaIV0kOqCtZzh9622oY-225" vertex="1" connectable="0">
          <mxGeometry x="0.091" relative="1" as="geometry">
            <mxPoint as="offset" />
          </mxGeometry>
        </mxCell>
        <mxCell id="dUaIV0kOqCtZzh9622oY-227" value="HostText (&quot;0&quot;)" style="whiteSpace=wrap;html=1;" parent="1" vertex="1">
          <mxGeometry x="4470" y="850" width="160" height="60" as="geometry" />
        </mxCell>
        <mxCell id="dUaIV0kOqCtZzh9622oY-228" style="edgeStyle=orthogonalEdgeStyle;rounded=0;orthogonalLoop=1;jettySize=auto;html=1;exitX=0.5;exitY=0;exitDx=0;exitDy=0;entryX=0.81;entryY=1.011;entryDx=0;entryDy=0;entryPerimeter=0;" parent="1" source="dUaIV0kOqCtZzh9622oY-227" target="dUaIV0kOqCtZzh9622oY-213" edge="1">
          <mxGeometry relative="1" as="geometry" />
        </mxCell>
        <mxCell id="dUaIV0kOqCtZzh9622oY-229" value="return" style="edgeLabel;html=1;align=center;verticalAlign=middle;resizable=0;points=[];" parent="dUaIV0kOqCtZzh9622oY-228" vertex="1" connectable="0">
          <mxGeometry x="0.0026" relative="1" as="geometry">
            <mxPoint as="offset" />
          </mxGeometry>
        </mxCell>
        <mxCell id="dUaIV0kOqCtZzh9622oY-230" value="a" style="whiteSpace=wrap;html=1;" parent="1" vertex="1">
          <mxGeometry x="4810" y="560" width="120" height="60" as="geometry" />
        </mxCell>
        <mxCell id="dUaIV0kOqCtZzh9622oY-231" value="br" style="whiteSpace=wrap;html=1;" parent="1" vertex="1">
          <mxGeometry x="5000" y="560" width="120" height="60" as="geometry" />
        </mxCell>
        <mxCell id="dUaIV0kOqCtZzh9622oY-232" value="&quot;Click me - &quot;" style="whiteSpace=wrap;html=1;" parent="1" vertex="1">
          <mxGeometry x="5020" y="660" width="120" height="60" as="geometry" />
        </mxCell>
        <mxCell id="dUaIV0kOqCtZzh9622oY-233" value="&quot;0&quot;" style="whiteSpace=wrap;html=1;" parent="1" vertex="1">
          <mxGeometry x="5280" y="660" width="120" height="60" as="geometry" />
        </mxCell>
        <mxCell id="dUaIV0kOqCtZzh9622oY-234" style="edgeStyle=orthogonalEdgeStyle;rounded=0;orthogonalLoop=1;jettySize=auto;html=1;exitX=0.25;exitY=1;exitDx=0;exitDy=0;entryX=0.25;entryY=0;entryDx=0;entryDy=0;" parent="1" source="dUaIV0kOqCtZzh9622oY-238" target="dUaIV0kOqCtZzh9622oY-232" edge="1">
          <mxGeometry relative="1" as="geometry" />
        </mxCell>
        <mxCell id="dUaIV0kOqCtZzh9622oY-235" value="appendChild" style="edgeLabel;html=1;align=center;verticalAlign=middle;resizable=0;points=[];" parent="dUaIV0kOqCtZzh9622oY-234" vertex="1" connectable="0">
          <mxGeometry x="-0.0993" y="-3" relative="1" as="geometry">
            <mxPoint as="offset" />
          </mxGeometry>
        </mxCell>
        <mxCell id="dUaIV0kOqCtZzh9622oY-236" style="edgeStyle=orthogonalEdgeStyle;rounded=0;orthogonalLoop=1;jettySize=auto;html=1;exitX=0.75;exitY=1;exitDx=0;exitDy=0;entryX=0.75;entryY=0;entryDx=0;entryDy=0;" parent="1" source="dUaIV0kOqCtZzh9622oY-238" target="dUaIV0kOqCtZzh9622oY-233" edge="1">
          <mxGeometry relative="1" as="geometry" />
        </mxCell>
        <mxCell id="dUaIV0kOqCtZzh9622oY-237" value="appendChid" style="edgeLabel;html=1;align=center;verticalAlign=middle;resizable=0;points=[];" parent="dUaIV0kOqCtZzh9622oY-236" vertex="1" connectable="0">
          <mxGeometry x="0.0036" relative="1" as="geometry">
            <mxPoint as="offset" />
          </mxGeometry>
        </mxCell>
        <mxCell id="dUaIV0kOqCtZzh9622oY-238" value="button" style="whiteSpace=wrap;html=1;" parent="1" vertex="1">
          <mxGeometry x="5160" y="560" width="120" height="60" as="geometry" />
        </mxCell>
        <mxCell id="dUaIV0kOqCtZzh9622oY-239" style="edgeStyle=orthogonalEdgeStyle;rounded=0;orthogonalLoop=1;jettySize=auto;html=1;exitX=0.5;exitY=1;exitDx=0;exitDy=0;entryX=0.5;entryY=0;entryDx=0;entryDy=0;" parent="1" source="dUaIV0kOqCtZzh9622oY-245" target="dUaIV0kOqCtZzh9622oY-231" edge="1">
          <mxGeometry relative="1" as="geometry" />
        </mxCell>
        <mxCell id="dUaIV0kOqCtZzh9622oY-240" value="appendChild" style="edgeLabel;html=1;align=center;verticalAlign=middle;resizable=0;points=[];" parent="dUaIV0kOqCtZzh9622oY-239" vertex="1" connectable="0">
          <mxGeometry x="-0.0249" y="1" relative="1" as="geometry">
            <mxPoint as="offset" />
          </mxGeometry>
        </mxCell>
        <mxCell id="dUaIV0kOqCtZzh9622oY-241" style="edgeStyle=orthogonalEdgeStyle;rounded=0;orthogonalLoop=1;jettySize=auto;html=1;exitX=0.75;exitY=1;exitDx=0;exitDy=0;entryX=0.5;entryY=0;entryDx=0;entryDy=0;" parent="1" source="dUaIV0kOqCtZzh9622oY-245" target="dUaIV0kOqCtZzh9622oY-238" edge="1">
          <mxGeometry relative="1" as="geometry" />
        </mxCell>
        <mxCell id="dUaIV0kOqCtZzh9622oY-242" value="appendChild" style="edgeLabel;html=1;align=center;verticalAlign=middle;resizable=0;points=[];" parent="dUaIV0kOqCtZzh9622oY-241" vertex="1" connectable="0">
          <mxGeometry x="0.0006" y="1" relative="1" as="geometry">
            <mxPoint x="-1" as="offset" />
          </mxGeometry>
        </mxCell>
        <mxCell id="dUaIV0kOqCtZzh9622oY-243" style="edgeStyle=orthogonalEdgeStyle;rounded=0;orthogonalLoop=1;jettySize=auto;html=1;exitX=0.25;exitY=1;exitDx=0;exitDy=0;entryX=0.5;entryY=0;entryDx=0;entryDy=0;" parent="1" source="dUaIV0kOqCtZzh9622oY-245" target="dUaIV0kOqCtZzh9622oY-230" edge="1">
          <mxGeometry relative="1" as="geometry" />
        </mxCell>
        <mxCell id="dUaIV0kOqCtZzh9622oY-244" value="appendChild" style="edgeLabel;html=1;align=center;verticalAlign=middle;resizable=0;points=[];" parent="dUaIV0kOqCtZzh9622oY-243" vertex="1" connectable="0">
          <mxGeometry x="0.0273" y="-2" relative="1" as="geometry">
            <mxPoint as="offset" />
          </mxGeometry>
        </mxCell>
        <mxCell id="dUaIV0kOqCtZzh9622oY-245" value="div" style="whiteSpace=wrap;html=1;" parent="1" vertex="1">
          <mxGeometry x="5000" y="450" width="120" height="60" as="geometry" />
        </mxCell>
        <mxCell id="dUaIV0kOqCtZzh9622oY-246" style="edgeStyle=orthogonalEdgeStyle;rounded=0;orthogonalLoop=1;jettySize=auto;html=1;exitX=0.5;exitY=1;exitDx=0;exitDy=0;entryX=0.5;entryY=0;entryDx=0;entryDy=0;" parent="1" source="dUaIV0kOqCtZzh9622oY-248" target="dUaIV0kOqCtZzh9622oY-245" edge="1">
          <mxGeometry relative="1" as="geometry" />
        </mxCell>
        <mxCell id="dUaIV0kOqCtZzh9622oY-247" value="appendChild" style="edgeLabel;html=1;align=center;verticalAlign=middle;resizable=0;points=[];" parent="dUaIV0kOqCtZzh9622oY-246" vertex="1" connectable="0">
          <mxGeometry x="-0.0318" y="-3" relative="1" as="geometry">
            <mxPoint as="offset" />
          </mxGeometry>
        </mxCell>
        <mxCell id="dUaIV0kOqCtZzh9622oY-248" value="main#root" style="whiteSpace=wrap;html=1;" parent="1" vertex="1">
          <mxGeometry x="5000" y="330" width="120" height="60" as="geometry" />
        </mxCell>
        <mxCell id="dUaIV0kOqCtZzh9622oY-249" value="" style="endArrow=none;dashed=1;html=1;dashPattern=1 3;strokeWidth=2;rounded=0;" parent="1" edge="1">
          <mxGeometry width="50" height="50" relative="1" as="geometry">
            <mxPoint x="770" y="910" as="sourcePoint" />
            <mxPoint x="740" y="60" as="targetPoint" />
          </mxGeometry>
        </mxCell>
        <mxCell id="dUaIV0kOqCtZzh9622oY-250" value="" style="endArrow=none;dashed=1;html=1;dashPattern=1 3;strokeWidth=2;rounded=0;" parent="1" edge="1">
          <mxGeometry width="50" height="50" relative="1" as="geometry">
            <mxPoint x="3500" y="910" as="sourcePoint" />
            <mxPoint x="3380" y="90" as="targetPoint" />
          </mxGeometry>
        </mxCell>
        <mxCell id="hGvPeqAMgqFfSPeqPx9l-2" value="useState() in mount?" style="rounded=1;whiteSpace=wrap;html=1;" vertex="1" parent="1">
          <mxGeometry x="800" y="910" width="140" height="60" as="geometry" />
        </mxCell>
        <mxCell id="hGvPeqAMgqFfSPeqPx9l-4" value="setState() call thì chuyện gì xảy ra?&amp;nbsp;&lt;div&gt;làm thế nào App()&amp;nbsp;được call lần nữa?&lt;/div&gt;&lt;div&gt;useState() in re-render khác gì in mount?&lt;/div&gt;&lt;div&gt;schedule?&lt;/div&gt;&lt;div&gt;worLoop?&lt;/div&gt;&lt;div&gt;fiber node&amp;nbsp;được sử lý ntn trong re-render?&lt;/div&gt;&lt;div&gt;commit phase?&lt;/div&gt;" style="rounded=1;whiteSpace=wrap;html=1;" vertex="1" parent="1">
          <mxGeometry x="980" y="980" width="230" height="130" as="geometry" />
        </mxCell>
        <mxCell id="hGvPeqAMgqFfSPeqPx9l-5" value="" style="endArrow=none;dashed=1;html=1;dashPattern=1 3;strokeWidth=2;rounded=0;" edge="1" parent="1">
          <mxGeometry width="50" height="50" relative="1" as="geometry">
            <mxPoint x="300" y="1170" as="sourcePoint" />
            <mxPoint x="1500" y="1160" as="targetPoint" />
          </mxGeometry>
        </mxCell>
        <mxCell id="hGvPeqAMgqFfSPeqPx9l-6" value="ReactDOMRoot.render()" style="rounded=0;whiteSpace=wrap;html=1;" vertex="1" parent="1">
          <mxGeometry x="310" y="1240" width="165" height="60" as="geometry" />
        </mxCell>
        <mxCell id="hGvPeqAMgqFfSPeqPx9l-22" style="edgeStyle=orthogonalEdgeStyle;rounded=0;orthogonalLoop=1;jettySize=auto;html=1;exitX=0.5;exitY=1;exitDx=0;exitDy=0;entryX=0.75;entryY=0;entryDx=0;entryDy=0;" edge="1" parent="1" source="hGvPeqAMgqFfSPeqPx9l-8" target="hGvPeqAMgqFfSPeqPx9l-9">
          <mxGeometry relative="1" as="geometry" />
        </mxCell>
        <mxCell id="hGvPeqAMgqFfSPeqPx9l-8" value="setState()" style="rounded=0;whiteSpace=wrap;html=1;" vertex="1" parent="1">
          <mxGeometry x="540" y="1240" width="120" height="60" as="geometry" />
        </mxCell>
        <mxCell id="hGvPeqAMgqFfSPeqPx9l-23" value="" style="edgeStyle=orthogonalEdgeStyle;rounded=0;orthogonalLoop=1;jettySize=auto;html=1;" edge="1" parent="1" source="hGvPeqAMgqFfSPeqPx9l-9" target="hGvPeqAMgqFfSPeqPx9l-10">
          <mxGeometry relative="1" as="geometry" />
        </mxCell>
        <mxCell id="hGvPeqAMgqFfSPeqPx9l-9" value="scheduleUpdateOnFiber()" style="rounded=0;whiteSpace=wrap;html=1;" vertex="1" parent="1">
          <mxGeometry x="410" y="1340" width="170" height="60" as="geometry" />
        </mxCell>
        <mxCell id="hGvPeqAMgqFfSPeqPx9l-24" style="edgeStyle=orthogonalEdgeStyle;rounded=0;orthogonalLoop=1;jettySize=auto;html=1;exitX=1;exitY=0.5;exitDx=0;exitDy=0;entryX=0;entryY=0.5;entryDx=0;entryDy=0;" edge="1" parent="1" source="hGvPeqAMgqFfSPeqPx9l-10" target="hGvPeqAMgqFfSPeqPx9l-13">
          <mxGeometry relative="1" as="geometry" />
        </mxCell>
        <mxCell id="hGvPeqAMgqFfSPeqPx9l-10" value="ensureRootIsScheduled()" style="rounded=0;whiteSpace=wrap;html=1;" vertex="1" parent="1">
          <mxGeometry x="415" y="1440" width="160" height="60" as="geometry" />
        </mxCell>
        <mxCell id="hGvPeqAMgqFfSPeqPx9l-25" style="edgeStyle=orthogonalEdgeStyle;rounded=0;orthogonalLoop=1;jettySize=auto;html=1;exitX=1;exitY=0.5;exitDx=0;exitDy=0;entryX=0;entryY=0.5;entryDx=0;entryDy=0;" edge="1" parent="1" source="hGvPeqAMgqFfSPeqPx9l-12" target="hGvPeqAMgqFfSPeqPx9l-14">
          <mxGeometry relative="1" as="geometry" />
        </mxCell>
        <mxCell id="hGvPeqAMgqFfSPeqPx9l-12" value="workLoop()" style="rounded=0;whiteSpace=wrap;html=1;" vertex="1" parent="1">
          <mxGeometry x="840" y="1300" width="120" height="60" as="geometry" />
        </mxCell>
        <mxCell id="hGvPeqAMgqFfSPeqPx9l-13" value="scheduleCallback()" style="rounded=0;whiteSpace=wrap;html=1;" vertex="1" parent="1">
          <mxGeometry x="840" y="1440" width="120" height="60" as="geometry" />
        </mxCell>
        <mxCell id="hGvPeqAMgqFfSPeqPx9l-26" style="edgeStyle=orthogonalEdgeStyle;rounded=0;orthogonalLoop=1;jettySize=auto;html=1;exitX=1;exitY=0.5;exitDx=0;exitDy=0;" edge="1" parent="1" source="hGvPeqAMgqFfSPeqPx9l-14">
          <mxGeometry relative="1" as="geometry">
            <mxPoint x="1430" y="1330.4285714285713" as="targetPoint" />
          </mxGeometry>
        </mxCell>
        <mxCell id="hGvPeqAMgqFfSPeqPx9l-14" value="performConcurrentWorkOnRoot()" style="rounded=0;whiteSpace=wrap;html=1;" vertex="1" parent="1">
          <mxGeometry x="1100" y="1300" width="200" height="60" as="geometry" />
        </mxCell>
        <mxCell id="hGvPeqAMgqFfSPeqPx9l-15" value="renderRootConccurrent()" style="rounded=0;whiteSpace=wrap;html=1;" vertex="1" parent="1">
          <mxGeometry x="1140" y="1400" width="160" height="60" as="geometry" />
        </mxCell>
        <mxCell id="hGvPeqAMgqFfSPeqPx9l-16" value="renderRootSync()" style="whiteSpace=wrap;html=1;" vertex="1" parent="1">
          <mxGeometry x="1180" y="1490" width="120" height="60" as="geometry" />
        </mxCell>
        <mxCell id="hGvPeqAMgqFfSPeqPx9l-17" value="commitRoot()" style="whiteSpace=wrap;html=1;" vertex="1" parent="1">
          <mxGeometry x="1435" y="1300" width="205" height="60" as="geometry" />
        </mxCell>
        <mxCell id="hGvPeqAMgqFfSPeqPx9l-18" value="commitMutationEffects()" style="whiteSpace=wrap;html=1;" vertex="1" parent="1">
          <mxGeometry x="1490" y="1400" width="150" height="60" as="geometry" />
        </mxCell>
        <mxCell id="hGvPeqAMgqFfSPeqPx9l-19" value="commitLayoutEffect()" style="whiteSpace=wrap;html=1;" vertex="1" parent="1">
          <mxGeometry x="1500" y="1490" width="140" height="60" as="geometry" />
        </mxCell>
        <mxCell id="hGvPeqAMgqFfSPeqPx9l-20" value="flushPassiveEffects()" style="whiteSpace=wrap;html=1;" vertex="1" parent="1">
          <mxGeometry x="1490" y="1580" width="150" height="60" as="geometry" />
        </mxCell>
        <mxCell id="hGvPeqAMgqFfSPeqPx9l-21" style="edgeStyle=orthogonalEdgeStyle;rounded=0;orthogonalLoop=1;jettySize=auto;html=1;exitX=0.5;exitY=1;exitDx=0;exitDy=0;entryX=0.199;entryY=0.058;entryDx=0;entryDy=0;entryPerimeter=0;" edge="1" parent="1" source="hGvPeqAMgqFfSPeqPx9l-6" target="hGvPeqAMgqFfSPeqPx9l-9">
          <mxGeometry relative="1" as="geometry" />
        </mxCell>
        <mxCell id="hGvPeqAMgqFfSPeqPx9l-30" value="Scheduler" style="text;html=1;align=center;verticalAlign=middle;whiteSpace=wrap;rounded=0;" vertex="1" parent="1">
          <mxGeometry x="870" y="1260" width="60" height="30" as="geometry" />
        </mxCell>
        <mxCell id="hGvPeqAMgqFfSPeqPx9l-31" value="Trigger" style="text;html=1;align=center;verticalAlign=middle;whiteSpace=wrap;rounded=0;" vertex="1" parent="1">
          <mxGeometry x="465" y="1190" width="60" height="30" as="geometry" />
        </mxCell>
        <mxCell id="hGvPeqAMgqFfSPeqPx9l-32" value="Schedule" style="text;html=1;align=center;verticalAlign=middle;whiteSpace=wrap;rounded=0;" vertex="1" parent="1">
          <mxGeometry x="870" y="1190" width="60" height="30" as="geometry" />
        </mxCell>
        <mxCell id="hGvPeqAMgqFfSPeqPx9l-33" value="Render" style="text;html=1;align=center;verticalAlign=middle;whiteSpace=wrap;rounded=0;" vertex="1" parent="1">
          <mxGeometry x="1170" y="1200" width="60" height="30" as="geometry" />
        </mxCell>
        <mxCell id="hGvPeqAMgqFfSPeqPx9l-34" value="Commit" style="text;html=1;align=center;verticalAlign=middle;whiteSpace=wrap;rounded=0;" vertex="1" parent="1">
          <mxGeometry x="1507.5" y="1200" width="60" height="30" as="geometry" />
        </mxCell>
        <mxCell id="hGvPeqAMgqFfSPeqPx9l-44" style="edgeStyle=orthogonalEdgeStyle;rounded=0;orthogonalLoop=1;jettySize=auto;html=1;exitX=0.5;exitY=1;exitDx=0;exitDy=0;entryX=0.5;entryY=0;entryDx=0;entryDy=0;" edge="1" parent="1" source="hGvPeqAMgqFfSPeqPx9l-35" target="hGvPeqAMgqFfSPeqPx9l-36">
          <mxGeometry relative="1" as="geometry" />
        </mxCell>
        <mxCell id="hGvPeqAMgqFfSPeqPx9l-71" style="edgeStyle=orthogonalEdgeStyle;rounded=0;orthogonalLoop=1;jettySize=auto;html=1;exitX=0.5;exitY=1;exitDx=0;exitDy=0;" edge="1" parent="1" source="hGvPeqAMgqFfSPeqPx9l-35" target="hGvPeqAMgqFfSPeqPx9l-67">
          <mxGeometry relative="1" as="geometry" />
        </mxCell>
        <mxCell id="hGvPeqAMgqFfSPeqPx9l-72" style="edgeStyle=orthogonalEdgeStyle;rounded=0;orthogonalLoop=1;jettySize=auto;html=1;exitX=0.5;exitY=1;exitDx=0;exitDy=0;" edge="1" parent="1" source="hGvPeqAMgqFfSPeqPx9l-35" target="hGvPeqAMgqFfSPeqPx9l-69">
          <mxGeometry relative="1" as="geometry" />
        </mxCell>
        <mxCell id="hGvPeqAMgqFfSPeqPx9l-78" style="edgeStyle=orthogonalEdgeStyle;rounded=0;orthogonalLoop=1;jettySize=auto;html=1;exitX=1;exitY=0.5;exitDx=0;exitDy=0;entryX=0;entryY=0.5;entryDx=0;entryDy=0;" edge="1" parent="1" source="hGvPeqAMgqFfSPeqPx9l-35" target="hGvPeqAMgqFfSPeqPx9l-73">
          <mxGeometry relative="1" as="geometry" />
        </mxCell>
        <mxCell id="hGvPeqAMgqFfSPeqPx9l-79" value="return" style="edgeLabel;html=1;align=center;verticalAlign=middle;resizable=0;points=[];" vertex="1" connectable="0" parent="hGvPeqAMgqFfSPeqPx9l-78">
          <mxGeometry x="-0.0412" relative="1" as="geometry">
            <mxPoint as="offset" />
          </mxGeometry>
        </mxCell>
        <mxCell id="hGvPeqAMgqFfSPeqPx9l-35" value="createRoot()" style="whiteSpace=wrap;html=1;" vertex="1" parent="1">
          <mxGeometry x="365" y="1720" width="120" height="60" as="geometry" />
        </mxCell>
        <mxCell id="hGvPeqAMgqFfSPeqPx9l-45" style="edgeStyle=orthogonalEdgeStyle;rounded=0;orthogonalLoop=1;jettySize=auto;html=1;exitX=0.5;exitY=1;exitDx=0;exitDy=0;entryX=0.5;entryY=0;entryDx=0;entryDy=0;" edge="1" parent="1" source="hGvPeqAMgqFfSPeqPx9l-36" target="hGvPeqAMgqFfSPeqPx9l-39">
          <mxGeometry relative="1" as="geometry" />
        </mxCell>
        <mxCell id="hGvPeqAMgqFfSPeqPx9l-66" value="return" style="edgeLabel;html=1;align=center;verticalAlign=middle;resizable=0;points=[];" vertex="1" connectable="0" parent="hGvPeqAMgqFfSPeqPx9l-45">
          <mxGeometry x="-0.0999" relative="1" as="geometry">
            <mxPoint as="offset" />
          </mxGeometry>
        </mxCell>
        <mxCell id="hGvPeqAMgqFfSPeqPx9l-36" value="createContainer()" style="rounded=0;whiteSpace=wrap;html=1;" vertex="1" parent="1">
          <mxGeometry x="365" y="1820" width="120" height="60" as="geometry" />
        </mxCell>
        <mxCell id="hGvPeqAMgqFfSPeqPx9l-46" style="edgeStyle=orthogonalEdgeStyle;rounded=0;orthogonalLoop=1;jettySize=auto;html=1;exitX=0.5;exitY=1;exitDx=0;exitDy=0;entryX=0.5;entryY=0;entryDx=0;entryDy=0;" edge="1" parent="1" source="hGvPeqAMgqFfSPeqPx9l-39" target="hGvPeqAMgqFfSPeqPx9l-40">
          <mxGeometry relative="1" as="geometry">
            <Array as="points">
              <mxPoint x="425" y="2030" />
            </Array>
          </mxGeometry>
        </mxCell>
        <mxCell id="hGvPeqAMgqFfSPeqPx9l-56" style="edgeStyle=orthogonalEdgeStyle;rounded=0;orthogonalLoop=1;jettySize=auto;html=1;exitX=0.5;exitY=1;exitDx=0;exitDy=0;" edge="1" parent="1" source="hGvPeqAMgqFfSPeqPx9l-39" target="hGvPeqAMgqFfSPeqPx9l-42">
          <mxGeometry relative="1" as="geometry" />
        </mxCell>
        <mxCell id="hGvPeqAMgqFfSPeqPx9l-57" style="edgeStyle=orthogonalEdgeStyle;rounded=0;orthogonalLoop=1;jettySize=auto;html=1;exitX=0.5;exitY=1;exitDx=0;exitDy=0;entryX=0.5;entryY=0;entryDx=0;entryDy=0;" edge="1" parent="1" source="hGvPeqAMgqFfSPeqPx9l-39" target="hGvPeqAMgqFfSPeqPx9l-55">
          <mxGeometry relative="1" as="geometry" />
        </mxCell>
        <mxCell id="hGvPeqAMgqFfSPeqPx9l-58" style="edgeStyle=orthogonalEdgeStyle;rounded=0;orthogonalLoop=1;jettySize=auto;html=1;exitX=1;exitY=0.5;exitDx=0;exitDy=0;entryX=0;entryY=0.5;entryDx=0;entryDy=0;" edge="1" parent="1" source="hGvPeqAMgqFfSPeqPx9l-39" target="hGvPeqAMgqFfSPeqPx9l-59">
          <mxGeometry relative="1" as="geometry">
            <mxPoint x="535" y="1950" as="targetPoint" />
            <Array as="points">
              <mxPoint x="510" y="1950" />
              <mxPoint x="510" y="1951" />
            </Array>
          </mxGeometry>
        </mxCell>
        <mxCell id="hGvPeqAMgqFfSPeqPx9l-60" value="return" style="edgeLabel;html=1;align=center;verticalAlign=middle;resizable=0;points=[];" vertex="1" connectable="0" parent="hGvPeqAMgqFfSPeqPx9l-58">
          <mxGeometry x="-0.1356" y="1" relative="1" as="geometry">
            <mxPoint as="offset" />
          </mxGeometry>
        </mxCell>
        <mxCell id="hGvPeqAMgqFfSPeqPx9l-39" value="createFiberRoot()" style="rounded=0;whiteSpace=wrap;html=1;" vertex="1" parent="1">
          <mxGeometry x="365" y="1920" width="120" height="60" as="geometry" />
        </mxCell>
        <mxCell id="hGvPeqAMgqFfSPeqPx9l-47" style="edgeStyle=orthogonalEdgeStyle;rounded=0;orthogonalLoop=1;jettySize=auto;html=1;exitX=0.5;exitY=1;exitDx=0;exitDy=0;entryX=0.5;entryY=0;entryDx=0;entryDy=0;" edge="1" parent="1" source="hGvPeqAMgqFfSPeqPx9l-40" target="hGvPeqAMgqFfSPeqPx9l-41">
          <mxGeometry relative="1" as="geometry" />
        </mxCell>
        <mxCell id="hGvPeqAMgqFfSPeqPx9l-48" value="create" style="edgeLabel;html=1;align=center;verticalAlign=middle;resizable=0;points=[];" vertex="1" connectable="0" parent="hGvPeqAMgqFfSPeqPx9l-47">
          <mxGeometry x="-0.0779" y="-4" relative="1" as="geometry">
            <mxPoint as="offset" />
          </mxGeometry>
        </mxCell>
        <mxCell id="hGvPeqAMgqFfSPeqPx9l-40" value="new FiberRootNode()" style="rounded=0;whiteSpace=wrap;html=1;" vertex="1" parent="1">
          <mxGeometry x="360" y="2030" width="130" height="60" as="geometry" />
        </mxCell>
        <mxCell id="hGvPeqAMgqFfSPeqPx9l-41" value="FiberRootNode" style="rounded=0;whiteSpace=wrap;html=1;" vertex="1" parent="1">
          <mxGeometry x="365" y="2130" width="120" height="60" as="geometry" />
        </mxCell>
        <mxCell id="hGvPeqAMgqFfSPeqPx9l-51" style="edgeStyle=orthogonalEdgeStyle;rounded=0;orthogonalLoop=1;jettySize=auto;html=1;exitX=0.5;exitY=1;exitDx=0;exitDy=0;entryX=0.5;entryY=0;entryDx=0;entryDy=0;" edge="1" parent="1" source="hGvPeqAMgqFfSPeqPx9l-42" target="hGvPeqAMgqFfSPeqPx9l-43">
          <mxGeometry relative="1" as="geometry" />
        </mxCell>
        <mxCell id="hGvPeqAMgqFfSPeqPx9l-42" value="createHostRootFiber()" style="rounded=0;whiteSpace=wrap;html=1;" vertex="1" parent="1">
          <mxGeometry x="555" y="2030" width="140" height="60" as="geometry" />
        </mxCell>
        <mxCell id="hGvPeqAMgqFfSPeqPx9l-53" style="edgeStyle=orthogonalEdgeStyle;rounded=0;orthogonalLoop=1;jettySize=auto;html=1;exitX=0.5;exitY=1;exitDx=0;exitDy=0;entryX=0.5;entryY=0;entryDx=0;entryDy=0;" edge="1" parent="1" source="hGvPeqAMgqFfSPeqPx9l-43" target="hGvPeqAMgqFfSPeqPx9l-52">
          <mxGeometry relative="1" as="geometry" />
        </mxCell>
        <mxCell id="hGvPeqAMgqFfSPeqPx9l-54" value="create" style="edgeLabel;html=1;align=center;verticalAlign=middle;resizable=0;points=[];" vertex="1" connectable="0" parent="hGvPeqAMgqFfSPeqPx9l-53">
          <mxGeometry x="0.0611" y="-3" relative="1" as="geometry">
            <mxPoint as="offset" />
          </mxGeometry>
        </mxCell>
        <mxCell id="hGvPeqAMgqFfSPeqPx9l-43" value="new createFiber()" style="rounded=0;whiteSpace=wrap;html=1;" vertex="1" parent="1">
          <mxGeometry x="565" y="2130" width="120" height="60" as="geometry" />
        </mxCell>
        <mxCell id="hGvPeqAMgqFfSPeqPx9l-52" value="HostRoot" style="whiteSpace=wrap;html=1;" vertex="1" parent="1">
          <mxGeometry x="565" y="2230" width="120" height="60" as="geometry" />
        </mxCell>
        <mxCell id="hGvPeqAMgqFfSPeqPx9l-55" value="initializeUpdateQueue()" style="whiteSpace=wrap;html=1;" vertex="1" parent="1">
          <mxGeometry x="755" y="2030" width="150" height="60" as="geometry" />
        </mxCell>
        <mxCell id="hGvPeqAMgqFfSPeqPx9l-59" value="FiberRootNode" style="rounded=0;whiteSpace=wrap;html=1;" vertex="1" parent="1">
          <mxGeometry x="555" y="1920" width="120" height="60" as="geometry" />
        </mxCell>
        <mxCell id="hGvPeqAMgqFfSPeqPx9l-67" value="markContainerAsRoot()" style="whiteSpace=wrap;html=1;" vertex="1" parent="1">
          <mxGeometry x="555" y="1820" width="150" height="60" as="geometry" />
        </mxCell>
        <mxCell id="hGvPeqAMgqFfSPeqPx9l-69" value="listenToAllSupportedEvents()" style="whiteSpace=wrap;html=1;" vertex="1" parent="1">
          <mxGeometry x="755" y="1820" width="180" height="60" as="geometry" />
        </mxCell>
        <mxCell id="hGvPeqAMgqFfSPeqPx9l-80" style="edgeStyle=orthogonalEdgeStyle;rounded=0;orthogonalLoop=1;jettySize=auto;html=1;exitX=1;exitY=0.5;exitDx=0;exitDy=0;entryX=0;entryY=0.5;entryDx=0;entryDy=0;" edge="1" parent="1" source="hGvPeqAMgqFfSPeqPx9l-73" target="hGvPeqAMgqFfSPeqPx9l-76">
          <mxGeometry relative="1" as="geometry" />
        </mxCell>
        <mxCell id="hGvPeqAMgqFfSPeqPx9l-81" value="create" style="edgeLabel;html=1;align=center;verticalAlign=middle;resizable=0;points=[];" vertex="1" connectable="0" parent="hGvPeqAMgqFfSPeqPx9l-80">
          <mxGeometry x="-0.0412" relative="1" as="geometry">
            <mxPoint as="offset" />
          </mxGeometry>
        </mxCell>
        <mxCell id="hGvPeqAMgqFfSPeqPx9l-73" value="new ReactDOMRoot()" style="whiteSpace=wrap;html=1;" vertex="1" parent="1">
          <mxGeometry x="555" y="1720" width="140" height="60" as="geometry" />
        </mxCell>
        <mxCell id="hGvPeqAMgqFfSPeqPx9l-76" value="ReactDOMRoot" style="whiteSpace=wrap;html=1;" vertex="1" parent="1">
          <mxGeometry x="755" y="1720" width="120" height="60" as="geometry" />
        </mxCell>
        <mxCell id="hGvPeqAMgqFfSPeqPx9l-88" style="edgeStyle=orthogonalEdgeStyle;rounded=0;orthogonalLoop=1;jettySize=auto;html=1;exitX=0.5;exitY=1;exitDx=0;exitDy=0;entryX=0.5;entryY=0;entryDx=0;entryDy=0;" edge="1" parent="1" source="hGvPeqAMgqFfSPeqPx9l-82" target="hGvPeqAMgqFfSPeqPx9l-83">
          <mxGeometry relative="1" as="geometry" />
        </mxCell>
        <mxCell id="hGvPeqAMgqFfSPeqPx9l-89" value="_internalRoot" style="edgeLabel;html=1;align=center;verticalAlign=middle;resizable=0;points=[];" vertex="1" connectable="0" parent="hGvPeqAMgqFfSPeqPx9l-88">
          <mxGeometry x="-0.1271" y="-4" relative="1" as="geometry">
            <mxPoint as="offset" />
          </mxGeometry>
        </mxCell>
        <mxCell id="hGvPeqAMgqFfSPeqPx9l-82" value="ReactDOMRoot" style="whiteSpace=wrap;html=1;" vertex="1" parent="1">
          <mxGeometry x="1125" y="1720" width="120" height="60" as="geometry" />
        </mxCell>
        <mxCell id="hGvPeqAMgqFfSPeqPx9l-86" style="edgeStyle=orthogonalEdgeStyle;rounded=0;orthogonalLoop=1;jettySize=auto;html=1;exitX=0.5;exitY=1;exitDx=0;exitDy=0;entryX=0.5;entryY=0;entryDx=0;entryDy=0;" edge="1" parent="1" source="hGvPeqAMgqFfSPeqPx9l-83" target="hGvPeqAMgqFfSPeqPx9l-84">
          <mxGeometry relative="1" as="geometry" />
        </mxCell>
        <mxCell id="hGvPeqAMgqFfSPeqPx9l-91" value="containerInfo" style="edgeLabel;html=1;align=center;verticalAlign=middle;resizable=0;points=[];" vertex="1" connectable="0" parent="hGvPeqAMgqFfSPeqPx9l-86">
          <mxGeometry x="0.0153" relative="1" as="geometry">
            <mxPoint as="offset" />
          </mxGeometry>
        </mxCell>
        <mxCell id="hGvPeqAMgqFfSPeqPx9l-87" style="edgeStyle=orthogonalEdgeStyle;rounded=0;orthogonalLoop=1;jettySize=auto;html=1;exitX=0.5;exitY=1;exitDx=0;exitDy=0;entryX=0.5;entryY=0;entryDx=0;entryDy=0;" edge="1" parent="1" source="hGvPeqAMgqFfSPeqPx9l-83" target="hGvPeqAMgqFfSPeqPx9l-85">
          <mxGeometry relative="1" as="geometry" />
        </mxCell>
        <mxCell id="hGvPeqAMgqFfSPeqPx9l-92" value="current" style="edgeLabel;html=1;align=center;verticalAlign=middle;resizable=0;points=[];" vertex="1" connectable="0" parent="hGvPeqAMgqFfSPeqPx9l-87">
          <mxGeometry x="-0.0338" relative="1" as="geometry">
            <mxPoint as="offset" />
          </mxGeometry>
        </mxCell>
        <mxCell id="hGvPeqAMgqFfSPeqPx9l-83" value="FiberRootNode" style="rounded=0;whiteSpace=wrap;html=1;" vertex="1" parent="1">
          <mxGeometry x="1125" y="1820" width="120" height="60" as="geometry" />
        </mxCell>
        <mxCell id="hGvPeqAMgqFfSPeqPx9l-84" value="main#root" style="whiteSpace=wrap;html=1;" vertex="1" parent="1">
          <mxGeometry x="1030" y="1920" width="120" height="60" as="geometry" />
        </mxCell>
        <mxCell id="hGvPeqAMgqFfSPeqPx9l-93" style="edgeStyle=orthogonalEdgeStyle;rounded=0;orthogonalLoop=1;jettySize=auto;html=1;exitX=1;exitY=0.5;exitDx=0;exitDy=0;entryX=1;entryY=0.5;entryDx=0;entryDy=0;" edge="1" parent="1" source="hGvPeqAMgqFfSPeqPx9l-85" target="hGvPeqAMgqFfSPeqPx9l-83">
          <mxGeometry relative="1" as="geometry" />
        </mxCell>
        <mxCell id="hGvPeqAMgqFfSPeqPx9l-94" value="stateNode" style="edgeLabel;html=1;align=center;verticalAlign=middle;resizable=0;points=[];" vertex="1" connectable="0" parent="hGvPeqAMgqFfSPeqPx9l-93">
          <mxGeometry x="0.477" y="-1" relative="1" as="geometry">
            <mxPoint as="offset" />
          </mxGeometry>
        </mxCell>
        <mxCell id="hGvPeqAMgqFfSPeqPx9l-85" value="HostRoot" style="whiteSpace=wrap;html=1;" vertex="1" parent="1">
          <mxGeometry x="1235" y="1920" width="120" height="60" as="geometry" />
        </mxCell>
        <mxCell id="hGvPeqAMgqFfSPeqPx9l-160" style="edgeStyle=orthogonalEdgeStyle;rounded=0;orthogonalLoop=1;jettySize=auto;html=1;exitX=0.5;exitY=1;exitDx=0;exitDy=0;entryX=0.5;entryY=0;entryDx=0;entryDy=0;" edge="1" parent="1" source="hGvPeqAMgqFfSPeqPx9l-95" target="hGvPeqAMgqFfSPeqPx9l-108">
          <mxGeometry relative="1" as="geometry" />
        </mxCell>
        <mxCell id="hGvPeqAMgqFfSPeqPx9l-95" value="ReactDOMRoot().render()" style="whiteSpace=wrap;html=1;" vertex="1" parent="1">
          <mxGeometry x="360" y="2320" width="160" height="60" as="geometry" />
        </mxCell>
        <mxCell id="hGvPeqAMgqFfSPeqPx9l-96" style="edgeStyle=orthogonalEdgeStyle;rounded=0;orthogonalLoop=1;jettySize=auto;html=1;exitX=0.5;exitY=1;exitDx=0;exitDy=0;entryX=0.5;entryY=0;entryDx=0;entryDy=0;" edge="1" parent="1" source="hGvPeqAMgqFfSPeqPx9l-98" target="hGvPeqAMgqFfSPeqPx9l-103">
          <mxGeometry relative="1" as="geometry" />
        </mxCell>
        <mxCell id="hGvPeqAMgqFfSPeqPx9l-97" value="_internalRoot" style="edgeLabel;html=1;align=center;verticalAlign=middle;resizable=0;points=[];" vertex="1" connectable="0" parent="hGvPeqAMgqFfSPeqPx9l-96">
          <mxGeometry x="-0.1271" y="-4" relative="1" as="geometry">
            <mxPoint as="offset" />
          </mxGeometry>
        </mxCell>
        <mxCell id="hGvPeqAMgqFfSPeqPx9l-98" value="ReactDOMRoot" style="whiteSpace=wrap;html=1;" vertex="1" parent="1">
          <mxGeometry x="1715" y="2380" width="120" height="60" as="geometry" />
        </mxCell>
        <mxCell id="hGvPeqAMgqFfSPeqPx9l-99" style="edgeStyle=orthogonalEdgeStyle;rounded=0;orthogonalLoop=1;jettySize=auto;html=1;exitX=0.5;exitY=1;exitDx=0;exitDy=0;entryX=0.5;entryY=0;entryDx=0;entryDy=0;" edge="1" parent="1" source="hGvPeqAMgqFfSPeqPx9l-103" target="hGvPeqAMgqFfSPeqPx9l-104">
          <mxGeometry relative="1" as="geometry" />
        </mxCell>
        <mxCell id="hGvPeqAMgqFfSPeqPx9l-100" value="containerInfo" style="edgeLabel;html=1;align=center;verticalAlign=middle;resizable=0;points=[];" vertex="1" connectable="0" parent="hGvPeqAMgqFfSPeqPx9l-99">
          <mxGeometry x="0.0153" relative="1" as="geometry">
            <mxPoint as="offset" />
          </mxGeometry>
        </mxCell>
        <mxCell id="hGvPeqAMgqFfSPeqPx9l-101" style="edgeStyle=orthogonalEdgeStyle;rounded=0;orthogonalLoop=1;jettySize=auto;html=1;exitX=0.5;exitY=1;exitDx=0;exitDy=0;entryX=0.5;entryY=0;entryDx=0;entryDy=0;" edge="1" parent="1" source="hGvPeqAMgqFfSPeqPx9l-103" target="hGvPeqAMgqFfSPeqPx9l-107">
          <mxGeometry relative="1" as="geometry" />
        </mxCell>
        <mxCell id="hGvPeqAMgqFfSPeqPx9l-102" value="current" style="edgeLabel;html=1;align=center;verticalAlign=middle;resizable=0;points=[];" vertex="1" connectable="0" parent="hGvPeqAMgqFfSPeqPx9l-101">
          <mxGeometry x="-0.0338" relative="1" as="geometry">
            <mxPoint as="offset" />
          </mxGeometry>
        </mxCell>
        <mxCell id="hGvPeqAMgqFfSPeqPx9l-165" style="edgeStyle=orthogonalEdgeStyle;rounded=0;orthogonalLoop=1;jettySize=auto;html=1;exitX=0.5;exitY=1;exitDx=0;exitDy=0;entryX=0.5;entryY=0;entryDx=0;entryDy=0;" edge="1" parent="1" source="hGvPeqAMgqFfSPeqPx9l-103" target="hGvPeqAMgqFfSPeqPx9l-164">
          <mxGeometry relative="1" as="geometry" />
        </mxCell>
        <mxCell id="hGvPeqAMgqFfSPeqPx9l-166" value="pendingLanes" style="edgeLabel;html=1;align=center;verticalAlign=middle;resizable=0;points=[];" vertex="1" connectable="0" parent="hGvPeqAMgqFfSPeqPx9l-165">
          <mxGeometry x="0.4276" y="2" relative="1" as="geometry">
            <mxPoint x="1" as="offset" />
          </mxGeometry>
        </mxCell>
        <mxCell id="hGvPeqAMgqFfSPeqPx9l-178" style="edgeStyle=orthogonalEdgeStyle;rounded=0;orthogonalLoop=1;jettySize=auto;html=1;exitX=0.5;exitY=1;exitDx=0;exitDy=0;entryX=0.5;entryY=0;entryDx=0;entryDy=0;" edge="1" parent="1" source="hGvPeqAMgqFfSPeqPx9l-103" target="hGvPeqAMgqFfSPeqPx9l-176">
          <mxGeometry relative="1" as="geometry" />
        </mxCell>
        <mxCell id="hGvPeqAMgqFfSPeqPx9l-179" value="callbackNode.callback" style="edgeLabel;html=1;align=center;verticalAlign=middle;resizable=0;points=[];" vertex="1" connectable="0" parent="hGvPeqAMgqFfSPeqPx9l-178">
          <mxGeometry x="0.5227" relative="1" as="geometry">
            <mxPoint x="1" as="offset" />
          </mxGeometry>
        </mxCell>
        <mxCell id="hGvPeqAMgqFfSPeqPx9l-103" value="FiberRootNode" style="rounded=0;whiteSpace=wrap;html=1;" vertex="1" parent="1">
          <mxGeometry x="1715" y="2480" width="120" height="60" as="geometry" />
        </mxCell>
        <mxCell id="hGvPeqAMgqFfSPeqPx9l-104" value="main#root" style="whiteSpace=wrap;html=1;" vertex="1" parent="1">
          <mxGeometry x="1620" y="2580" width="120" height="60" as="geometry" />
        </mxCell>
        <mxCell id="hGvPeqAMgqFfSPeqPx9l-105" style="edgeStyle=orthogonalEdgeStyle;rounded=0;orthogonalLoop=1;jettySize=auto;html=1;exitX=1;exitY=0.5;exitDx=0;exitDy=0;entryX=1;entryY=0.5;entryDx=0;entryDy=0;" edge="1" parent="1" source="hGvPeqAMgqFfSPeqPx9l-107" target="hGvPeqAMgqFfSPeqPx9l-103">
          <mxGeometry relative="1" as="geometry" />
        </mxCell>
        <mxCell id="hGvPeqAMgqFfSPeqPx9l-106" value="stateNode" style="edgeLabel;html=1;align=center;verticalAlign=middle;resizable=0;points=[];" vertex="1" connectable="0" parent="hGvPeqAMgqFfSPeqPx9l-105">
          <mxGeometry x="0.477" y="-1" relative="1" as="geometry">
            <mxPoint as="offset" />
          </mxGeometry>
        </mxCell>
        <mxCell id="hGvPeqAMgqFfSPeqPx9l-156" style="edgeStyle=orthogonalEdgeStyle;rounded=0;orthogonalLoop=1;jettySize=auto;html=1;exitX=0.5;exitY=1;exitDx=0;exitDy=0;entryX=0.5;entryY=0;entryDx=0;entryDy=0;" edge="1" parent="1" source="hGvPeqAMgqFfSPeqPx9l-107" target="hGvPeqAMgqFfSPeqPx9l-134">
          <mxGeometry relative="1" as="geometry" />
        </mxCell>
        <mxCell id="hGvPeqAMgqFfSPeqPx9l-157" value="updateQueue.shared.interleaved" style="edgeLabel;html=1;align=center;verticalAlign=middle;resizable=0;points=[];" vertex="1" connectable="0" parent="hGvPeqAMgqFfSPeqPx9l-156">
          <mxGeometry x="-0.0365" y="-1" relative="1" as="geometry">
            <mxPoint as="offset" />
          </mxGeometry>
        </mxCell>
        <mxCell id="hGvPeqAMgqFfSPeqPx9l-107" value="HostRoot" style="whiteSpace=wrap;html=1;" vertex="1" parent="1">
          <mxGeometry x="1825" y="2580" width="120" height="60" as="geometry" />
        </mxCell>
        <mxCell id="hGvPeqAMgqFfSPeqPx9l-161" style="edgeStyle=orthogonalEdgeStyle;rounded=0;orthogonalLoop=1;jettySize=auto;html=1;exitX=0.5;exitY=1;exitDx=0;exitDy=0;entryX=0.5;entryY=0;entryDx=0;entryDy=0;" edge="1" parent="1" source="hGvPeqAMgqFfSPeqPx9l-108" target="hGvPeqAMgqFfSPeqPx9l-112">
          <mxGeometry relative="1" as="geometry" />
        </mxCell>
        <mxCell id="hGvPeqAMgqFfSPeqPx9l-162" style="edgeStyle=orthogonalEdgeStyle;rounded=0;orthogonalLoop=1;jettySize=auto;html=1;exitX=0.5;exitY=1;exitDx=0;exitDy=0;entryX=0.5;entryY=0;entryDx=0;entryDy=0;" edge="1" parent="1" source="hGvPeqAMgqFfSPeqPx9l-108" target="hGvPeqAMgqFfSPeqPx9l-119">
          <mxGeometry relative="1" as="geometry" />
        </mxCell>
        <mxCell id="hGvPeqAMgqFfSPeqPx9l-172" style="edgeStyle=orthogonalEdgeStyle;rounded=0;orthogonalLoop=1;jettySize=auto;html=1;exitX=0.5;exitY=1;exitDx=0;exitDy=0;entryX=0.5;entryY=0;entryDx=0;entryDy=0;" edge="1" parent="1" source="hGvPeqAMgqFfSPeqPx9l-108" target="hGvPeqAMgqFfSPeqPx9l-147">
          <mxGeometry relative="1" as="geometry" />
        </mxCell>
        <mxCell id="hGvPeqAMgqFfSPeqPx9l-173" style="edgeStyle=orthogonalEdgeStyle;rounded=0;orthogonalLoop=1;jettySize=auto;html=1;exitX=0.5;exitY=1;exitDx=0;exitDy=0;entryX=0.5;entryY=0;entryDx=0;entryDy=0;" edge="1" parent="1" source="hGvPeqAMgqFfSPeqPx9l-108" target="hGvPeqAMgqFfSPeqPx9l-148">
          <mxGeometry relative="1" as="geometry" />
        </mxCell>
        <mxCell id="hGvPeqAMgqFfSPeqPx9l-108" value="updateContainer()" style="whiteSpace=wrap;html=1;" vertex="1" parent="1">
          <mxGeometry x="380" y="2420" width="120" height="60" as="geometry" />
        </mxCell>
        <mxCell id="hGvPeqAMgqFfSPeqPx9l-120" style="edgeStyle=orthogonalEdgeStyle;rounded=0;orthogonalLoop=1;jettySize=auto;html=1;exitX=0.5;exitY=1;exitDx=0;exitDy=0;entryX=0.5;entryY=0;entryDx=0;entryDy=0;" edge="1" parent="1" source="hGvPeqAMgqFfSPeqPx9l-112" target="hGvPeqAMgqFfSPeqPx9l-114">
          <mxGeometry relative="1" as="geometry" />
        </mxCell>
        <mxCell id="hGvPeqAMgqFfSPeqPx9l-121" value="return" style="edgeLabel;html=1;align=center;verticalAlign=middle;resizable=0;points=[];" vertex="1" connectable="0" parent="hGvPeqAMgqFfSPeqPx9l-120">
          <mxGeometry x="-0.1711" y="1" relative="1" as="geometry">
            <mxPoint as="offset" />
          </mxGeometry>
        </mxCell>
        <mxCell id="hGvPeqAMgqFfSPeqPx9l-112" value="createUpdate()" style="whiteSpace=wrap;html=1;" vertex="1" parent="1">
          <mxGeometry x="380" y="2530" width="120" height="60" as="geometry" />
        </mxCell>
        <mxCell id="hGvPeqAMgqFfSPeqPx9l-114" value="update" style="rounded=0;whiteSpace=wrap;html=1;" vertex="1" parent="1">
          <mxGeometry x="380" y="2630" width="120" height="60" as="geometry" />
        </mxCell>
        <mxCell id="hGvPeqAMgqFfSPeqPx9l-141" style="edgeStyle=orthogonalEdgeStyle;rounded=0;orthogonalLoop=1;jettySize=auto;html=1;exitX=0.5;exitY=1;exitDx=0;exitDy=0;entryX=0.5;entryY=0;entryDx=0;entryDy=0;" edge="1" parent="1" source="hGvPeqAMgqFfSPeqPx9l-119" target="hGvPeqAMgqFfSPeqPx9l-122">
          <mxGeometry relative="1" as="geometry" />
        </mxCell>
        <mxCell id="hGvPeqAMgqFfSPeqPx9l-145" value="return" style="edgeLabel;html=1;align=center;verticalAlign=middle;resizable=0;points=[];" vertex="1" connectable="0" parent="hGvPeqAMgqFfSPeqPx9l-141">
          <mxGeometry x="-0.1357" y="-1" relative="1" as="geometry">
            <mxPoint as="offset" />
          </mxGeometry>
        </mxCell>
        <mxCell id="hGvPeqAMgqFfSPeqPx9l-119" value="enqueueUpdate()" style="whiteSpace=wrap;html=1;" vertex="1" parent="1">
          <mxGeometry x="600" y="2530" width="120" height="60" as="geometry" />
        </mxCell>
        <mxCell id="hGvPeqAMgqFfSPeqPx9l-139" style="edgeStyle=orthogonalEdgeStyle;rounded=0;orthogonalLoop=1;jettySize=auto;html=1;exitX=0.5;exitY=1;exitDx=0;exitDy=0;entryX=0.5;entryY=0;entryDx=0;entryDy=0;" edge="1" parent="1" source="hGvPeqAMgqFfSPeqPx9l-122" target="hGvPeqAMgqFfSPeqPx9l-131">
          <mxGeometry relative="1" as="geometry" />
        </mxCell>
        <mxCell id="hGvPeqAMgqFfSPeqPx9l-143" style="edgeStyle=orthogonalEdgeStyle;rounded=0;orthogonalLoop=1;jettySize=auto;html=1;exitX=1;exitY=0.5;exitDx=0;exitDy=0;entryX=0;entryY=0.5;entryDx=0;entryDy=0;" edge="1" parent="1" source="hGvPeqAMgqFfSPeqPx9l-122" target="hGvPeqAMgqFfSPeqPx9l-142">
          <mxGeometry relative="1" as="geometry" />
        </mxCell>
        <mxCell id="hGvPeqAMgqFfSPeqPx9l-144" value="return" style="edgeLabel;html=1;align=center;verticalAlign=middle;resizable=0;points=[];" vertex="1" connectable="0" parent="hGvPeqAMgqFfSPeqPx9l-143">
          <mxGeometry x="-0.3183" relative="1" as="geometry">
            <mxPoint as="offset" />
          </mxGeometry>
        </mxCell>
        <mxCell id="hGvPeqAMgqFfSPeqPx9l-146" style="edgeStyle=orthogonalEdgeStyle;rounded=0;orthogonalLoop=1;jettySize=auto;html=1;exitX=0.5;exitY=1;exitDx=0;exitDy=0;entryX=0.5;entryY=0;entryDx=0;entryDy=0;" edge="1" parent="1" source="hGvPeqAMgqFfSPeqPx9l-122" target="hGvPeqAMgqFfSPeqPx9l-140">
          <mxGeometry relative="1" as="geometry" />
        </mxCell>
        <mxCell id="hGvPeqAMgqFfSPeqPx9l-122" value="enqueueConcurrentClassUpdate()" style="whiteSpace=wrap;html=1;" vertex="1" parent="1">
          <mxGeometry x="555" y="2630" width="210" height="60" as="geometry" />
        </mxCell>
        <mxCell id="hGvPeqAMgqFfSPeqPx9l-131" value="pushConcurrentUpdateQueue()" style="whiteSpace=wrap;html=1;" vertex="1" parent="1">
          <mxGeometry x="560" y="2730" width="200" height="60" as="geometry" />
        </mxCell>
        <mxCell id="hGvPeqAMgqFfSPeqPx9l-132" value="concurrentQueues = [shared]" style="whiteSpace=wrap;html=1;" vertex="1" parent="1">
          <mxGeometry x="1590" y="2710" width="180" height="60" as="geometry" />
        </mxCell>
        <mxCell id="hGvPeqAMgqFfSPeqPx9l-158" style="edgeStyle=orthogonalEdgeStyle;rounded=0;orthogonalLoop=1;jettySize=auto;html=1;exitX=0.75;exitY=1;exitDx=0;exitDy=0;" edge="1" parent="1" source="hGvPeqAMgqFfSPeqPx9l-134">
          <mxGeometry relative="1" as="geometry">
            <mxPoint x="1950" y="2740" as="targetPoint" />
          </mxGeometry>
        </mxCell>
        <mxCell id="hGvPeqAMgqFfSPeqPx9l-159" value="next" style="edgeLabel;html=1;align=center;verticalAlign=middle;resizable=0;points=[];" vertex="1" connectable="0" parent="hGvPeqAMgqFfSPeqPx9l-158">
          <mxGeometry x="-0.3144" y="2" relative="1" as="geometry">
            <mxPoint x="1" as="offset" />
          </mxGeometry>
        </mxCell>
        <mxCell id="hGvPeqAMgqFfSPeqPx9l-134" value="update" style="whiteSpace=wrap;html=1;" vertex="1" parent="1">
          <mxGeometry x="1825" y="2710" width="120" height="60" as="geometry" />
        </mxCell>
        <mxCell id="hGvPeqAMgqFfSPeqPx9l-140" value="markUpdateLaneFromFiberToRoot()" style="whiteSpace=wrap;html=1;" vertex="1" parent="1">
          <mxGeometry x="780" y="2730" width="220" height="60" as="geometry" />
        </mxCell>
        <mxCell id="hGvPeqAMgqFfSPeqPx9l-142" value="FiberRootNode" style="whiteSpace=wrap;html=1;" vertex="1" parent="1">
          <mxGeometry x="830" y="2630" width="120" height="60" as="geometry" />
        </mxCell>
        <mxCell id="hGvPeqAMgqFfSPeqPx9l-170" style="edgeStyle=orthogonalEdgeStyle;rounded=0;orthogonalLoop=1;jettySize=auto;html=1;exitX=0.5;exitY=1;exitDx=0;exitDy=0;entryX=0.5;entryY=0;entryDx=0;entryDy=0;" edge="1" parent="1" source="hGvPeqAMgqFfSPeqPx9l-147" target="hGvPeqAMgqFfSPeqPx9l-163">
          <mxGeometry relative="1" as="geometry" />
        </mxCell>
        <mxCell id="hGvPeqAMgqFfSPeqPx9l-171" style="edgeStyle=orthogonalEdgeStyle;rounded=0;orthogonalLoop=1;jettySize=auto;html=1;exitX=0.5;exitY=1;exitDx=0;exitDy=0;entryX=0.5;entryY=0;entryDx=0;entryDy=0;" edge="1" parent="1" source="hGvPeqAMgqFfSPeqPx9l-147" target="hGvPeqAMgqFfSPeqPx9l-167">
          <mxGeometry relative="1" as="geometry" />
        </mxCell>
        <mxCell id="hGvPeqAMgqFfSPeqPx9l-147" value="scheduleUpdateOnFiber()" style="whiteSpace=wrap;html=1;" vertex="1" parent="1">
          <mxGeometry x="1000" y="2530" width="160" height="60" as="geometry" />
        </mxCell>
        <mxCell id="hGvPeqAMgqFfSPeqPx9l-148" value="entangleTransitions()" style="whiteSpace=wrap;html=1;" vertex="1" parent="1">
          <mxGeometry x="1387.5" y="2530" width="120" height="60" as="geometry" />
        </mxCell>
        <mxCell id="hGvPeqAMgqFfSPeqPx9l-151" value="&lt;div&gt;&lt;span style=&quot;background-color: initial;&quot;&gt;ReactNodeList App&lt;/span&gt;&lt;br&gt;&lt;/div&gt;" style="whiteSpace=wrap;html=1;" vertex="1" parent="1">
          <mxGeometry x="1802.5" y="2830" width="165" height="60" as="geometry" />
        </mxCell>
        <mxCell id="hGvPeqAMgqFfSPeqPx9l-152" style="edgeStyle=orthogonalEdgeStyle;rounded=0;orthogonalLoop=1;jettySize=auto;html=1;exitX=0.25;exitY=1;exitDx=0;exitDy=0;entryX=0.315;entryY=-0.015;entryDx=0;entryDy=0;entryPerimeter=0;" edge="1" parent="1" source="hGvPeqAMgqFfSPeqPx9l-134" target="hGvPeqAMgqFfSPeqPx9l-151">
          <mxGeometry relative="1" as="geometry" />
        </mxCell>
        <mxCell id="hGvPeqAMgqFfSPeqPx9l-153" value="payload.element" style="edgeLabel;html=1;align=center;verticalAlign=middle;resizable=0;points=[];" vertex="1" connectable="0" parent="hGvPeqAMgqFfSPeqPx9l-152">
          <mxGeometry x="0.052" y="-3" relative="1" as="geometry">
            <mxPoint as="offset" />
          </mxGeometry>
        </mxCell>
        <mxCell id="hGvPeqAMgqFfSPeqPx9l-163" value="markRootUpdate()" style="whiteSpace=wrap;html=1;" vertex="1" parent="1">
          <mxGeometry x="1020" y="2630" width="120" height="60" as="geometry" />
        </mxCell>
        <mxCell id="hGvPeqAMgqFfSPeqPx9l-164" value="16" style="whiteSpace=wrap;html=1;" vertex="1" parent="1">
          <mxGeometry x="2040" y="2580" width="120" height="60" as="geometry" />
        </mxCell>
        <mxCell id="hGvPeqAMgqFfSPeqPx9l-181" style="edgeStyle=orthogonalEdgeStyle;rounded=0;orthogonalLoop=1;jettySize=auto;html=1;exitX=0.5;exitY=1;exitDx=0;exitDy=0;entryX=0.5;entryY=0;entryDx=0;entryDy=0;" edge="1" parent="1" source="hGvPeqAMgqFfSPeqPx9l-167" target="hGvPeqAMgqFfSPeqPx9l-168">
          <mxGeometry relative="1" as="geometry" />
        </mxCell>
        <mxCell id="hGvPeqAMgqFfSPeqPx9l-167" value="ensureRootIsScheduled()" style="whiteSpace=wrap;html=1;" vertex="1" parent="1">
          <mxGeometry x="1190" y="2630" width="160" height="60" as="geometry" />
        </mxCell>
        <mxCell id="hGvPeqAMgqFfSPeqPx9l-182" style="edgeStyle=orthogonalEdgeStyle;rounded=0;orthogonalLoop=1;jettySize=auto;html=1;exitX=0.5;exitY=1;exitDx=0;exitDy=0;entryX=0.5;entryY=0;entryDx=0;entryDy=0;" edge="1" parent="1" source="hGvPeqAMgqFfSPeqPx9l-168" target="hGvPeqAMgqFfSPeqPx9l-174">
          <mxGeometry relative="1" as="geometry" />
        </mxCell>
        <mxCell id="hGvPeqAMgqFfSPeqPx9l-168" value="scheduleCallback$1()" style="whiteSpace=wrap;html=1;" vertex="1" parent="1">
          <mxGeometry x="1205" y="2710" width="130" height="60" as="geometry" />
        </mxCell>
        <mxCell id="hGvPeqAMgqFfSPeqPx9l-174" value="scheduleCallback()" style="whiteSpace=wrap;html=1;" vertex="1" parent="1">
          <mxGeometry x="1210" y="2790" width="120" height="60" as="geometry" />
        </mxCell>
        <mxCell id="hGvPeqAMgqFfSPeqPx9l-176" value="performConcurrentWorkOnRoot()" style="whiteSpace=wrap;html=1;" vertex="1" parent="1">
          <mxGeometry x="2230" y="2580" width="200" height="60" as="geometry" />
        </mxCell>
      </root>
    </mxGraphModel>
  </diagram>
</mxfile>
